<svg width="853" height="892" viewBox="0 0 853 892" fill="none" xmlns="http://www.w3.org/2000/svg">
<path d="M635.089 743.05L633.432 744.238C632.344 744.981 630.811 746.169 628.71 747.482L621.292 752.284C618.399 754.166 615.135 756.27 611.401 758.325C593.585 768.914 574.859 777.886 555.446 785.136C536.049 792.392 516.073 797.991 495.733 801.872L484.384 803.901C480.971 804.446 478.004 804.743 475.556 805.065L467.842 806.055" stroke="url(#paint0_linear)" stroke-width="0.52" stroke-miterlimit="10"/>
<path d="M323.368 789.221C323.368 789.221 322.131 788.924 319.881 788.132L310.139 784.839C305.886 783.502 300.916 781.472 295.155 779.219C289.394 776.966 283.064 774.07 276.141 770.951C260.457 763.595 245.334 755.097 230.892 745.526C214.36 734.514 198.748 722.178 184.209 708.639C156.978 683.234 133.847 653.754 115.644 621.248C113.691 617.981 112.059 614.713 110.476 611.618C108.894 608.524 107.41 605.602 106.001 602.854C103.355 597.284 101.204 592.333 99.3494 588.298C97.4949 584.262 96.3823 580.871 95.4674 578.742L94.1322 575.35" stroke="url(#paint1_linear)" stroke-width="0.52" stroke-miterlimit="10"/>
<path d="M510.569 774.392L502.879 776.174C500.406 776.669 497.488 777.536 494.052 778.105L482.48 780.16C440.826 786.811 398.306 785.728 357.044 776.966L345.621 774.318C342.209 773.55 339.316 772.585 336.893 771.842L329.302 769.688" stroke="url(#paint2_linear)" stroke-width="0.52" stroke-miterlimit="10"/>
<path d="M718.416 619.491L716.908 621.966L712.358 629.17C710.405 632.24 708.056 635.978 704.94 640.063C701.825 644.148 698.783 648.926 694.852 653.754L688.942 661.354L682.118 669.226L678.558 673.336L674.75 677.396L666.813 685.689C655.2 697.112 642.869 707.779 629.897 717.625C616.773 727.272 603.038 736.054 588.777 743.917C581.804 747.407 575.227 751.071 568.65 753.819C565.386 755.28 562.246 756.741 559.155 758.077L550.106 761.642C544.369 764.118 538.88 765.727 534.108 767.386C529.336 769.044 525.083 770.258 521.572 771.248L513.462 773.55C511.582 774.07 510.569 774.268 510.569 774.268" stroke="url(#paint3_linear)" stroke-width="0.52" stroke-miterlimit="10"/>
<path d="M763.319 635.087C763.319 635.087 760.97 639.197 756.816 646.351L748.755 658.878C745.664 663.829 741.733 668.929 737.678 674.747C735.65 677.668 733.252 680.491 730.927 683.536C728.603 686.581 726.205 689.7 723.51 692.77C718.169 698.909 712.68 705.519 706.449 711.832C700.218 718.145 693.715 724.582 686.989 731.019C680.264 737.455 672.92 743.397 665.379 749.165C657.837 754.933 650.222 760.479 642.631 765.851C635.04 771.223 627.152 775.976 619.363 780.259C611.575 784.542 604.033 788.577 596.813 792.315C593.203 794.147 589.395 795.682 586.057 797.267C582.719 798.851 579.233 800.436 575.92 801.723C569.318 804.199 563.31 806.848 557.87 808.729L543.702 813.507C539.77 814.77 536.605 815.587 534.479 816.205L531.215 817.146" stroke="url(#paint4_linear)" stroke-width="0.52" stroke-miterlimit="10"/>
<path d="M353.731 761.741L350.937 761.098L347.599 760.33L343.124 759.068C339.786 758.077 335.706 756.988 331.057 755.577C326.409 754.166 321.167 752.334 315.653 750.279C260.61 729.753 212.152 694.676 175.431 648.778C171.747 644.074 168.31 639.816 165.541 635.78C162.772 631.745 160.151 628.353 158.346 625.457L152.436 616.223" stroke="url(#paint5_linear)" stroke-width="0.52" stroke-miterlimit="10"/>
<path d="M503.744 823.855L494.892 825.44C492.074 825.91 488.686 826.628 484.73 827.148L471.477 828.831C447.663 831.432 423.665 831.879 399.771 830.168C375.887 828.399 352.215 824.438 329.055 818.335L316.172 814.671C312.34 813.631 309.101 812.368 306.282 811.502L297.776 808.605" stroke="url(#paint6_linear)" stroke-width="0.52" stroke-miterlimit="10"/>
<path d="M554.952 734.138C554.952 734.138 545.259 738.643 530.226 743.842C511.744 750.207 492.703 754.807 473.356 757.582C453.963 760.373 434.353 761.351 414.78 760.503C410.75 760.503 407.115 759.984 403.876 759.81C400.637 759.637 397.793 759.389 395.469 759.142L388.199 758.201" stroke="url(#paint7_linear)" stroke-width="0.52" stroke-miterlimit="10"/>
<path d="M128.279 721.24C128.279 721.24 139.826 722.403 150.903 723.022C161.98 723.641 173.156 723.393 173.156 723.393L174.047 724.235C174.615 724.805 175.481 725.597 176.519 726.711L185.94 734.881C187.869 736.613 190.044 738.371 192.393 740.178L199.811 745.947C202.284 747.977 205.028 749.908 207.798 751.888L216.18 757.83C221.892 761.716 227.752 765.257 233.191 768.846L248.497 777.66L263.802 785.532L264.396 787.117C264.791 788.107 265.36 789.592 266.028 791.226C267.412 794.618 269.291 799.173 271.294 803.753L274.286 810.511L277.08 816.28L279.899 821.924L285.561 824.152C289.147 825.662 294.413 827.346 300.694 829.5C331.488 839.891 363.46 846.386 395.864 848.834C402.491 849.305 407.98 849.8 411.862 849.825L417.92 849.973" stroke="url(#paint8_linear)" stroke-width="0.52" stroke-miterlimit="10"/>
<path d="M434.511 736.762H431.321C430.332 736.762 429.096 736.762 427.687 736.762H422.964C419.502 736.613 415.546 736.762 411.145 736.341C406.744 735.92 402.244 735.722 397.645 735.277L384.243 733.593L372.647 731.514C369.234 730.994 366.465 730.202 364.487 729.781L361.421 729.063C361.421 729.063 356.995 720.225 353.434 710.99C351.629 706.411 349.948 702.004 348.786 698.612L346.931 692.844L344.261 691.928C342.53 691.284 339.884 690.616 336.843 689.254C327.951 685.901 319.258 682.041 310.807 677.693C285.01 664.534 261.606 647.127 241.574 626.2C230.86 615.051 221.147 602.981 212.545 590.129C205.064 578.931 198.491 567.15 192.888 554.901C191.652 552.227 190.415 549.653 189.377 547.202C188.338 544.751 187.473 542.25 186.608 540.072C184.728 535.665 183.542 531.655 182.404 528.412C181.86 526.778 181.366 525.317 180.921 524.054C180.476 522.792 180.253 521.579 179.981 520.811C179.486 519.029 179.239 518.088 179.239 518.088L175.456 516.677C172.984 515.761 169.497 514.474 165.566 512.716C155.394 508.349 145.487 503.389 135.894 497.862C133.224 496.327 130.529 494.768 127.883 493.158C125.237 491.549 122.938 489.915 120.465 488.207C115.52 484.964 110.995 481.795 107.113 478.948C99.6955 473.254 94.5277 469.046 94.5277 469.046" stroke="url(#paint9_linear)" stroke-width="0.52" stroke-miterlimit="10"/>
<path d="M520.434 713.763L525.503 712.055L538.633 706.831C551.767 701.119 564.491 694.501 576.711 687.026C588.887 679.485 600.46 671.009 611.327 661.676L617.435 656.403C619.215 654.843 620.674 653.333 621.91 652.169L625.817 648.456C625.817 648.456 628.166 648.802 631.702 649.174C635.237 649.545 639.886 649.892 644.683 650.189C649.48 650.486 654.351 650.709 657.936 650.709H663.994L666.293 648.035L668.939 644.99L672.178 640.88C677.123 634.914 683.058 626.67 688.695 618.154L692.8 611.717C694.184 609.613 695.52 607.533 696.657 605.429C699.006 601.245 701.33 597.433 703.135 594.041L708.946 582.678C708.946 582.678 709.861 582.455 711.418 582.009L717.699 580.128C720.32 579.311 723.386 578.345 726.674 577.231C729.963 576.117 733.573 574.929 736.985 573.567C743.908 570.894 751.005 567.948 756.247 565.596L764.851 561.461C764.851 561.461 765.445 559.729 766.459 556.684C766.953 555.173 767.645 553.341 768.264 551.188C768.882 549.034 769.574 546.632 770.316 543.983C771.058 541.334 771.874 538.463 772.788 535.442C773.703 532.422 774.247 529.13 775.014 525.787C776.695 519.128 777.907 511.874 779.192 504.67C779.91 501.08 780.33 497.417 780.775 493.852C781.22 490.287 781.665 486.746 782.11 483.33C782.629 476.497 783.124 470.085 783.569 464.614C783.841 453.622 784.014 446.294 784.014 446.294" stroke="url(#paint10_linear)" stroke-width="0.52" stroke-miterlimit="10"/>
<path d="M823.131 456.742C823.131 456.742 823.131 458.425 823.007 461.396C823.007 462.881 823.007 464.689 822.859 466.743C822.711 468.798 822.537 471.15 822.34 473.675C821.746 483.85 820.263 497.367 818.087 510.81C817.493 514.152 816.9 517.494 816.307 520.712C816.01 522.363 815.713 524.013 815.416 525.664C815.07 527.273 814.699 528.857 814.353 530.392C812.894 536.606 811.683 542.449 810.323 547.375C807.529 557.278 805.674 563.739 805.674 563.739C805.674 563.739 810.199 573.642 814.452 584.46C816.653 589.808 818.383 595.13 819.842 599.314L822.142 606.196L821.227 608.474C820.658 609.935 819.818 612.138 818.581 614.812L814.18 624.566C813.339 626.447 812.425 628.453 811.46 630.557C810.496 632.661 809.309 634.79 808.172 637.068C805.823 641.573 803.449 646.55 800.581 651.6L791.432 667.469L780.899 683.932C777.091 689.403 773.159 694.899 769.228 700.42C754.391 720.313 737.844 738.869 719.776 755.874C704.94 769.787 694.333 778.155 694.333 778.155" stroke="url(#paint11_linear)" stroke-width="0.52" stroke-miterlimit="10"/>
<path d="M724.746 462.906C724.746 462.906 724.424 467.115 723.954 473.403C723.806 476.547 723.237 480.186 722.768 484.098C722.298 488.009 721.828 492.168 720.987 496.303C720.147 500.437 719.627 504.571 718.713 508.408C717.798 512.246 717.006 515.835 716.24 518.88C715.473 521.925 714.682 524.426 714.237 526.307C713.792 528.189 713.446 529.08 713.446 529.08C713.446 529.08 710.058 530.615 705.014 532.694C699.97 534.774 692.899 537.225 686.148 539.453C679.398 541.681 672.302 543.439 667.258 544.701C664.785 545.345 662.634 545.84 661.076 546.137L658.603 546.608L657.12 549.826C656.156 551.856 655.043 554.777 653.164 558.243C651.285 561.709 649.529 565.67 646.982 569.879L643.298 576.34C641.988 578.494 640.529 580.623 639.169 582.802C636.523 587.233 633.358 591.293 630.614 595.18C627.869 599.067 624.877 602.607 622.553 605.627L614.146 615.406" stroke="url(#paint12_linear)" stroke-width="0.52" stroke-miterlimit="10"/>
<path d="M123.902 667.989L117.721 659.25C115.792 656.774 113.888 653.457 111.688 650.114C109.487 646.772 107.138 643.183 105.036 639.444C100.759 632.017 96.4564 624.591 93.6623 618.847C92.2035 616 90.9672 613.623 90.1265 611.94C89.2858 610.257 88.816 609.316 88.816 609.316C88.816 609.316 84.8351 607.756 78.7525 605.231C72.6699 602.706 64.4856 599.141 56.499 595.056C52.4934 593.051 48.4631 590.971 44.68 588.941C40.8969 586.911 37.5341 584.906 34.5423 583.173C28.6822 579.658 24.7508 577.182 24.7508 577.182C24.7508 577.182 24.0584 575.226 22.9705 571.736C21.8825 568.245 20.4979 563.244 18.8412 557.228C18.4209 555.743 18.0005 554.158 17.5307 552.549C17.061 550.94 16.7642 549.207 16.3439 547.474C15.5527 543.984 14.6873 540.32 13.8713 536.507C13.0553 532.695 12.2394 528.758 11.5223 524.723C10.8053 520.688 10.0882 516.603 9.34642 512.493C8.15957 504.274 7.12107 496.03 6.28039 488.281C5.4397 480.533 4.9699 473.205 4.62374 467.065C4.3023 454.687 4.10449 446.344 4.10449 446.344" stroke="url(#paint13_linear)" stroke-width="0.52" stroke-miterlimit="10"/>
<path d="M633.309 801.847L627.919 804.941C624.556 806.996 619.512 809.521 613.503 812.616C598.757 820.106 583.581 826.72 568.057 832.421C559.502 835.268 551.045 838.412 542.861 840.566L531.116 843.883L520.509 846.359L511.508 848.438C508.813 848.983 506.439 849.354 504.511 849.726L498.404 850.815L493.112 857.276C489.873 861.138 485.398 866.015 480.749 871.016C476.101 876.017 471.304 880.919 467.57 884.459L461.314 890.401L455.479 890.821C451.77 891.193 446.454 891.292 440.075 891.465L429.789 891.688C426.129 891.688 422.371 891.688 418.291 891.515L405.928 891.168C401.749 890.92 397.496 890.574 393.244 890.252C388.991 889.93 384.762 889.683 380.584 889.163L368.443 887.628C360.506 886.737 353.163 885.276 346.857 884.162L338.253 882.577L331.676 881.092L325.964 879.755" stroke="url(#paint14_linear)" stroke-width="0.52" stroke-miterlimit="10"/>
<path d="M221.397 149.638L223.054 148.449C224.142 147.707 225.675 146.494 227.777 145.206L235.194 140.404C238.087 138.522 241.351 136.418 245.085 134.363C262.901 123.774 281.627 114.801 301.04 107.552C320.434 100.291 340.411 94.7009 360.753 90.8412L372.103 88.8112C375.515 88.2665 378.482 87.9694 380.93 87.6228L388.644 86.6573" stroke="url(#paint15_linear)" stroke-width="0.52" stroke-miterlimit="10"/>
<path d="M533.119 103.467C533.119 103.467 534.355 103.764 536.605 104.556L546.471 107.874C550.724 109.186 555.694 111.216 561.455 113.493C567.216 115.771 573.546 118.618 580.469 121.737C596.111 129.116 611.193 137.63 625.594 147.212C642.119 158.214 657.731 170.533 672.277 184.049C699.51 209.462 722.64 238.951 740.843 271.464C742.796 274.732 744.428 277.975 746.01 281.07L750.486 289.858C753.132 295.429 755.283 300.38 757.137 304.415C758.992 308.45 760.104 311.842 761.019 313.946C761.934 316.051 762.354 317.338 762.354 317.338" stroke="url(#paint16_linear)" stroke-width="0.52" stroke-miterlimit="10"/>
<path d="M345.918 118.321L353.607 116.538C356.08 116.018 358.998 115.177 362.435 114.607L374.006 112.553C415.676 105.895 458.213 106.978 499.491 115.746L510.915 118.37C514.327 119.163 517.22 120.128 519.643 120.846L527.234 123" stroke="url(#paint17_linear)" stroke-width="0.52" stroke-miterlimit="10"/>
<path d="M138.071 273.222L139.579 270.746C140.642 269.112 142.175 266.711 144.128 263.641C146.082 260.571 148.431 256.833 151.546 252.748C154.662 248.664 157.703 243.886 161.634 239.058L167.643 231.384L174.467 223.511L178.053 219.278C179.289 217.941 180.525 216.604 181.86 215.242L189.797 206.924C201.364 195.507 213.654 184.848 226.59 175.013C239.713 165.367 253.449 156.585 267.709 148.722C274.682 145.231 281.259 141.542 287.836 138.819C291.1 137.359 294.24 135.873 297.331 134.536L306.381 130.971C312.117 128.496 317.607 126.887 322.379 125.228C327.151 123.569 331.404 122.356 334.915 121.391L343.025 119.064C344.904 118.544 345.918 118.37 345.918 118.37" stroke="url(#paint18_linear)" stroke-width="0.52" stroke-miterlimit="10"/>
<path d="M93.1677 257.625C93.1677 257.625 95.5167 253.516 99.6707 246.337L107.731 233.76C110.822 228.809 114.754 223.684 118.809 217.867C120.836 214.97 123.235 212.148 125.559 209.103C127.883 206.058 130.282 202.914 132.977 199.844C138.318 193.704 143.807 187.119 150.038 180.806C156.269 174.493 162.772 168.057 169.497 161.62C176.223 155.183 183.566 149.242 191.108 143.449C198.649 137.656 206.265 132.16 213.856 126.763C221.447 121.366 229.334 116.662 237.123 112.379C244.912 108.096 252.453 104.061 259.673 100.323C263.283 98.4662 267.091 96.956 270.429 95.3716C273.767 93.7872 277.253 92.178 280.567 90.8907C287.169 88.4151 293.177 85.7909 298.617 83.9094L312.785 79.1066C316.716 77.8688 319.881 77.0518 322.008 76.4329L325.271 75.4922" stroke="url(#paint19_linear)" stroke-width="0.52" stroke-miterlimit="10"/>
<path d="M502.755 130.971L505.549 131.615L508.887 132.383L513.363 133.645C516.701 134.611 520.781 135.7 525.429 137.111C530.078 138.522 535.319 140.379 540.833 142.409C595.883 162.983 644.339 198.102 681.055 244.034C684.739 248.738 688.176 252.996 690.945 257.031C693.715 261.067 696.336 264.458 698.141 267.355L704.05 276.589" stroke="url(#paint20_linear)" stroke-width="0.52" stroke-miterlimit="10"/>
<path d="M352.742 68.8574L361.594 67.273C364.413 66.8026 367.8 66.0599 371.756 65.5648L385.009 63.8814C408.821 61.2587 432.821 60.803 456.715 62.5198C480.599 64.2889 504.271 68.25 527.432 74.3533L540.314 78.0173C544.146 79.0818 547.386 80.3444 550.204 81.2109L558.71 84.1074" stroke="url(#paint21_linear)" stroke-width="0.52" stroke-miterlimit="10"/>
<path d="M301.534 158.575C301.534 158.575 311.227 154.069 326.26 148.87C344.738 142.485 363.78 137.876 383.13 135.106C402.524 132.322 422.134 131.352 441.707 132.209C445.737 132.209 449.372 132.729 452.611 132.902C455.85 133.076 458.693 133.323 461.018 133.571L468.287 134.512" stroke="url(#paint22_linear)" stroke-width="0.52" stroke-miterlimit="10"/>
<path d="M728.208 171.473C728.208 171.473 716.66 170.309 705.583 169.666C694.506 169.022 683.33 169.319 683.33 169.319L682.44 168.477C681.871 167.908 681.005 167.091 679.843 166.002L670.423 157.807C668.494 156.074 666.318 154.341 663.969 152.509L656.551 146.766C654.079 144.711 651.334 142.78 648.565 140.824L640.183 134.858C634.471 130.996 628.611 127.431 623.171 123.866L607.866 115.053L592.56 107.18L591.967 105.571L590.335 101.486C588.95 98.0948 587.071 93.5396 585.068 88.9597L582.076 82.1764L579.282 76.4329C577.601 73.0413 576.464 70.7884 576.464 70.7884L570.801 68.5604C567.216 67.0502 561.949 65.342 555.669 63.213C524.874 52.8219 492.903 46.3266 460.498 43.8782C453.872 43.383 448.383 42.8879 444.501 42.8879L438.443 42.7394" stroke="url(#paint23_linear)" stroke-width="0.52" stroke-miterlimit="10"/>
<path d="M421.975 155.951H425.165C426.154 155.951 427.39 155.951 428.8 155.951L433.522 156.075C436.984 156.223 440.94 156.075 445.341 156.471C449.742 156.867 454.243 157.114 458.842 157.535L472.243 159.243L483.84 161.323C487.252 161.843 490.021 162.635 491.999 163.056L495.065 163.749C495.065 163.749 499.491 172.612 503.052 181.846C504.857 186.426 506.538 190.808 507.7 194.224L509.555 199.992L512.225 200.908C513.956 201.552 516.602 202.196 519.643 203.557C528.531 206.921 537.223 210.781 545.68 215.119C571.471 228.296 594.873 245.71 614.913 266.637C625.632 277.78 635.346 289.85 643.941 302.707C651.424 313.9 657.989 325.681 663.573 337.935C664.81 340.609 666.046 343.184 667.085 345.635C668.123 348.086 668.988 350.586 669.854 352.74C671.733 357.171 672.92 361.182 674.057 364.425C674.601 366.059 675.096 367.495 675.541 368.757C675.986 370.02 676.208 371.233 676.48 372.025L677.222 374.748L681.005 376.135C683.478 377.075 686.964 378.363 690.896 380.12C701.072 384.477 710.98 389.437 720.567 394.974C723.237 396.484 725.933 398.069 728.578 399.653C731.224 401.238 733.524 402.896 735.996 404.605C740.941 407.823 745.466 411.017 749.348 413.863C756.766 419.557 761.934 423.766 761.934 423.766" stroke="url(#paint24_linear)" stroke-width="0.52" stroke-miterlimit="10"/>
<path d="M336.052 178.949L330.983 180.658L317.854 185.881C304.718 191.592 291.995 198.21 279.776 205.686C267.604 213.244 256.031 221.728 245.159 231.062L239.052 236.285C237.271 237.845 235.813 239.355 234.576 240.519L230.67 244.232C230.67 244.232 228.197 243.886 224.785 243.514C221.373 243.143 216.6 242.796 211.804 242.474C207.007 242.153 202.111 241.955 198.55 241.979H192.492L190.193 244.628L187.547 247.673L184.308 251.808C179.363 257.749 173.429 266.018 167.791 274.534L163.687 280.946C162.302 283.05 160.967 285.155 159.829 287.259C157.48 291.418 155.156 295.255 153.351 298.622L147.541 310.01C147.541 310.01 146.626 310.208 145.068 310.654L138.787 312.56C136.167 313.352 133.1 314.342 129.812 315.432C126.523 316.521 122.913 317.759 119.501 319.12C112.578 321.794 105.481 324.715 100.24 327.092L91.6349 331.226L90.0277 335.98C89.5332 337.515 88.8408 339.347 88.2227 341.476C87.6045 343.605 86.9122 346.056 86.1704 348.704C85.4286 351.353 84.6127 354.2 83.6978 357.245C82.7829 360.291 82.239 363.558 81.4725 366.9C79.7911 373.56 78.5795 380.789 77.2938 388.018C76.5767 391.607 76.1564 395.247 75.7113 398.836C75.2662 402.426 74.8211 405.941 74.3761 409.333C73.8568 416.191 73.3623 422.578 72.9172 428.074L72.4722 446.369" stroke="url(#paint25_linear)" stroke-width="0.52" stroke-miterlimit="10"/>
<path d="M33.3555 436.07C33.3555 436.07 33.3555 434.362 33.3555 431.416C33.3555 429.93 33.3555 428.123 33.5038 426.044C33.6522 423.964 33.8253 421.662 34.0231 419.112C34.6165 408.962 36.1001 395.42 38.276 381.977C38.8694 378.635 39.4628 375.268 40.0562 372.074L40.9464 367.123C41.2925 365.514 41.6634 363.93 42.0096 362.37C43.4684 356.156 44.68 350.338 46.0399 345.412C48.834 335.509 50.6884 329.048 50.6884 329.048C50.6884 329.048 46.1636 318.997 41.9107 308.327C39.7101 302.979 37.9792 297.657 36.5204 293.473L34.2209 286.59L35.1357 284.338C35.7044 282.852 36.5451 280.674 37.7814 277.975L42.1827 268.246C43.0234 266.364 43.9382 264.359 44.9025 262.255L48.1911 255.744C50.5401 251.238 52.9138 246.262 55.782 241.212L64.9307 225.343L75.464 208.855C79.2718 203.384 83.2032 197.888 87.1347 192.392C101.959 172.488 118.507 153.931 136.587 136.938C151.422 123.025 162.03 114.657 162.03 114.657" stroke="url(#paint26_linear)" stroke-width="0.52" stroke-miterlimit="10"/>
<path d="M131.74 429.782L132.532 419.31C132.68 416.141 133.249 412.527 133.719 408.615C134.188 404.704 134.658 400.52 135.499 396.41C136.34 392.301 136.859 388.117 137.774 384.304C138.689 380.492 139.48 376.877 140.246 373.832C141.013 370.787 141.804 368.262 142.249 366.405L143.04 363.633C143.04 363.633 146.428 362.122 151.472 360.043C156.516 357.963 163.588 355.512 170.338 353.284C177.088 351.056 184.184 349.274 189.229 348.011C191.701 347.392 193.852 346.897 195.41 346.6L197.883 346.105L199.366 342.887C200.331 340.881 201.443 337.935 203.322 334.47C205.202 331.004 206.957 327.043 209.504 322.859L213.188 316.397C214.499 314.243 215.957 312.09 217.317 309.911C219.963 305.504 223.128 301.42 225.873 297.533C228.617 293.646 231.609 290.106 233.933 287.086L242.34 277.307" stroke="url(#paint27_linear)" stroke-width="0.52" stroke-miterlimit="10"/>
<path d="M732.584 224.724L738.766 233.438C740.694 235.914 742.598 239.256 744.799 242.598C746.999 245.94 749.348 249.53 751.45 253.244C755.728 260.671 760.03 268.097 762.824 273.841L766.36 280.748C767.225 282.431 767.67 283.397 767.67 283.397C767.67 283.397 771.651 284.932 777.734 287.482C783.816 290.032 792.001 293.572 799.987 297.632C803.993 299.662 808.023 301.741 811.806 303.771C815.589 305.802 818.952 307.807 821.944 309.54C827.878 313.03 831.835 315.531 831.835 315.531C831.835 315.531 832.527 317.487 833.615 320.952C834.703 324.418 836.087 329.469 837.744 335.46C838.164 336.97 838.585 338.53 839.055 340.163C839.524 341.797 839.821 343.481 840.241 345.239C841.033 348.704 841.898 352.393 842.714 356.181C843.53 359.969 844.346 363.954 845.063 367.99C845.78 372.025 846.497 376.11 847.239 380.195C848.426 388.439 849.464 396.682 850.305 404.431C851.146 412.18 851.517 419.434 851.863 425.648C852.184 438.026 852.382 446.344 852.382 446.344" stroke="url(#paint28_linear)" stroke-width="0.52" stroke-miterlimit="10"/>
<path d="M223.177 90.8412L228.568 87.7714C231.931 85.7166 236.975 83.1915 242.983 80.0969C257.725 72.596 272.901 65.9825 288.43 60.2917C296.985 57.4447 305.441 54.2759 313.625 52.1221L325.346 48.8047L335.978 46.3291L344.978 44.2743C347.673 43.7297 350.047 43.3335 351.976 42.9622L358.083 41.8729L363.498 35.4115C366.737 31.5495 371.212 26.6972 375.861 21.6964C380.509 16.6956 385.306 11.7938 389.015 8.25364L395.147 2.31209L400.983 1.86648C404.692 1.51989 410.008 1.42086 416.387 1.24756L426.673 1C430.333 1 434.091 1 438.171 1.19805L450.534 1.54464C454.712 1.79221 458.965 2.1388 463.218 2.43587C467.471 2.73295 471.699 3.03003 475.878 3.54992L488.241 5.08482C496.178 5.97605 503.522 7.56046 509.827 8.52596L518.432 10.1104L525.009 11.6205L530.72 12.9326" stroke="url(#paint29_linear)" stroke-width="0.52" stroke-miterlimit="10"/>
<path d="M485.456 40.8118L474.514 39.7052C473.433 39.5958 472.467 40.385 472.358 41.4679L472.126 43.7717C472.016 44.8546 472.805 45.8211 473.886 45.9305L484.828 47.0371C485.91 47.1464 486.875 46.3573 486.984 45.2744L487.217 42.9706C487.326 41.8877 486.538 40.9212 485.456 40.8118Z" fill="#ACB0B3"/>
<path d="M326.409 96.1262L315.826 99.3173C314.78 99.6327 314.188 100.737 314.503 101.785L315.173 104.013C315.488 105.06 316.591 105.654 317.637 105.338L328.22 102.147C329.266 101.832 329.859 100.727 329.544 99.6797L328.874 97.4515C328.559 96.4041 327.455 95.8108 326.409 96.1262Z" fill="#ACB0B3"/>
<path d="M21.0699 550.244L18.5078 536.771C18.2523 535.427 16.9578 534.546 15.6163 534.802L12.7987 535.339C11.4572 535.595 10.5768 536.891 10.8322 538.234L13.3943 551.707C13.6497 553.05 14.9443 553.931 16.2857 553.676L19.1034 553.139C20.4448 552.883 21.3253 551.587 21.0699 550.244Z" fill="#ACB0B3"/>
<path d="M414.724 781.276L404.752 780.697C403.757 780.639 402.903 781.4 402.845 782.397L402.724 784.498C402.666 785.494 403.426 786.349 404.421 786.406L414.394 786.986C415.389 787.043 416.242 786.282 416.3 785.286L416.422 783.185C416.48 782.189 415.72 781.334 414.724 781.276Z" fill="#ACB0B3"/>
<path d="M780.352 512.642L782.082 502.666C782.252 501.682 781.594 500.747 780.612 500.576L778.517 500.212C777.535 500.041 776.6 500.7 776.43 501.683L774.7 511.659C774.529 512.643 775.187 513.578 776.169 513.749L778.265 514.113C779.247 514.284 780.181 513.625 780.352 512.642Z" fill="#ACB0B3"/>
<path d="M678.729 186.031L671.165 179.31C670.42 178.647 669.279 178.715 668.617 179.462L667.206 181.054C666.544 181.801 666.612 182.943 667.357 183.606L674.921 190.327C675.667 190.989 676.807 190.921 677.469 190.175L678.881 188.582C679.542 187.836 679.474 186.694 678.729 186.031Z" fill="#ACB0B3"/>
<path d="M645.331 767.986L653.662 762.247C654.483 761.681 654.691 760.556 654.126 759.734L652.921 757.98C652.355 757.157 651.232 756.949 650.41 757.515L642.079 763.255C641.258 763.82 641.05 764.945 641.615 765.768L642.821 767.522C643.386 768.344 644.509 768.552 645.331 767.986Z" fill="#ACB0B3"/>
<path d="M94.822 177.914L88.5944 185.892C87.9806 186.678 88.1196 187.814 88.9051 188.429L90.5805 189.74C91.366 190.354 92.5003 190.215 93.1142 189.429L99.3418 181.451C99.9556 180.664 99.8166 179.529 99.0311 178.914L97.3557 177.603C96.5702 176.988 95.4359 177.128 94.822 177.914Z" fill="#ACB0B3"/>
<path d="M165.986 114.484C165.986 115.277 165.751 116.052 165.311 116.712C164.871 117.371 164.245 117.885 163.513 118.189C162.781 118.492 161.976 118.572 161.199 118.417C160.422 118.262 159.708 117.88 159.148 117.319C158.588 116.759 158.206 116.044 158.052 115.266C157.897 114.488 157.976 113.682 158.28 112.949C158.583 112.216 159.096 111.59 159.755 111.149C160.414 110.708 161.188 110.473 161.98 110.473C163.041 110.48 164.056 110.904 164.806 111.655C165.555 112.406 165.979 113.422 165.986 114.484Z" fill="url(#paint30_linear)"/>
<path d="M535.641 102.848C535.641 103.641 535.406 104.417 534.966 105.076C534.525 105.736 533.9 106.25 533.168 106.553C532.436 106.857 531.631 106.936 530.854 106.782C530.077 106.627 529.363 106.245 528.803 105.684C528.242 105.123 527.861 104.408 527.706 103.63C527.552 102.853 527.631 102.046 527.934 101.313C528.237 100.58 528.751 99.9541 529.41 99.5134C530.068 99.0727 530.843 98.8375 531.635 98.8375C532.697 98.8375 533.716 99.2601 534.467 100.012C535.219 100.764 535.641 101.784 535.641 102.848Z" fill="url(#paint31_linear)"/>
<path d="M96.0857 259.705C96.0857 260.498 95.8508 261.274 95.4106 261.933C94.9705 262.593 94.3449 263.107 93.613 263.41C92.8811 263.714 92.0756 263.793 91.2986 263.638C90.5216 263.484 89.8079 263.102 89.2477 262.541C88.6875 261.98 88.306 261.265 88.1514 260.487C87.9969 259.709 88.0762 258.903 88.3794 258.17C88.6825 257.437 89.196 256.811 89.8547 256.37C90.5134 255.93 91.2879 255.694 92.0801 255.694C92.607 255.691 93.1294 255.793 93.6169 255.993C94.1043 256.193 94.5472 256.489 94.9198 256.862C95.2924 257.235 95.5874 257.678 95.7875 258.166C95.9876 258.654 96.089 259.177 96.0857 259.705Z" fill="url(#paint32_linear)"/>
<path d="M735.057 221.456C735.057 222.249 734.822 223.025 734.382 223.684C733.941 224.344 733.316 224.858 732.584 225.162C731.852 225.465 731.047 225.545 730.27 225.39C729.493 225.235 728.779 224.853 728.219 224.292C727.658 223.731 727.277 223.017 727.122 222.239C726.968 221.461 727.047 220.654 727.35 219.922C727.654 219.189 728.167 218.562 728.826 218.122C729.484 217.681 730.259 217.446 731.051 217.446C732.113 217.446 733.132 217.868 733.883 218.62C734.635 219.373 735.057 220.393 735.057 221.456Z" fill="url(#paint33_linear)"/>
<path d="M565.51 85.0234C565.51 85.8176 565.274 86.594 564.833 87.2541C564.392 87.9141 563.765 88.4281 563.031 88.7309C562.298 89.0338 561.491 89.1117 560.714 88.955C559.936 88.7982 559.222 88.4138 558.663 87.8504C558.104 87.287 557.724 86.5701 557.573 85.7905C557.421 85.0109 557.504 84.2038 557.811 83.4714C558.118 82.739 558.635 82.1144 559.297 81.6767C559.959 81.239 560.736 81.0079 561.529 81.0128C562.054 81.0128 562.573 81.1167 563.058 81.3186C563.543 81.5204 563.983 81.8162 564.353 82.189C564.723 82.5617 565.015 83.004 565.214 83.4905C565.413 83.9769 565.513 84.4979 565.51 85.0234Z" fill="url(#paint34_linear)"/>
<path d="M723.608 616.792C723.608 617.586 723.373 618.363 722.932 619.023C722.49 619.683 721.863 620.197 721.13 620.5C720.396 620.803 719.59 620.881 718.812 620.724C718.034 620.567 717.321 620.183 716.761 619.619C716.202 619.056 715.823 618.339 715.671 617.559C715.519 616.78 715.602 615.973 715.909 615.24C716.216 614.508 716.733 613.883 717.395 613.446C718.057 613.008 718.834 612.777 719.627 612.782C720.152 612.782 720.672 612.886 721.157 613.087C721.641 613.289 722.081 613.585 722.451 613.958C722.821 614.331 723.114 614.773 723.312 615.259C723.511 615.746 723.612 616.267 723.608 616.792Z" fill="url(#paint35_linear)"/>
<path d="M728.776 460.158C728.776 460.951 728.541 461.727 728.101 462.386C727.661 463.046 727.035 463.56 726.303 463.863C725.571 464.167 724.766 464.246 723.989 464.091C723.212 463.937 722.498 463.555 721.938 462.994C721.378 462.433 720.996 461.718 720.842 460.94C720.687 460.162 720.767 459.356 721.07 458.623C721.373 457.89 721.886 457.264 722.545 456.823C723.204 456.383 723.978 456.148 724.77 456.148C725.831 456.154 726.846 456.579 727.596 457.329C728.346 458.08 728.77 459.096 728.776 460.158Z" fill="url(#paint36_linear)"/>
<path d="M440.767 736.712C440.767 737.506 440.532 738.281 440.092 738.941C439.652 739.6 439.026 740.114 438.294 740.418C437.562 740.721 436.757 740.801 435.98 740.646C435.203 740.491 434.489 740.109 433.929 739.548C433.369 738.987 432.987 738.273 432.833 737.495C432.678 736.717 432.757 735.91 433.061 735.178C433.364 734.445 433.877 733.818 434.536 733.378C435.195 732.937 435.969 732.702 436.761 732.702C437.288 732.699 437.811 732.8 438.298 733C438.786 733.201 439.228 733.496 439.601 733.869C439.974 734.242 440.269 734.686 440.469 735.174C440.669 735.662 440.77 736.185 440.767 736.712Z" fill="url(#paint37_linear)"/>
<path d="M300.002 807.417C300.006 808.212 299.775 808.991 299.337 809.654C298.899 810.318 298.273 810.835 297.54 811.142C296.807 811.449 296 811.53 295.221 811.376C294.441 811.222 293.725 810.84 293.164 810.277C292.602 809.715 292.22 808.998 292.066 808.218C291.912 807.438 291.994 806.629 292.3 805.895C292.606 805.162 293.123 804.535 293.786 804.097C294.448 803.658 295.226 803.426 296.021 803.431C297.076 803.431 298.089 803.851 298.836 804.599C299.582 805.346 300.002 806.36 300.002 807.417Z" fill="url(#paint38_linear)"/>
<path d="M468.955 806.229C468.954 807.019 468.721 807.791 468.284 808.449C467.847 809.107 467.226 809.621 466.499 809.926C465.771 810.232 464.969 810.316 464.194 810.167C463.419 810.018 462.706 809.643 462.143 809.09C461.58 808.536 461.192 807.829 461.03 807.056C460.867 806.283 460.936 805.479 461.227 804.745C461.519 804.011 462.021 803.379 462.67 802.93C463.319 802.48 464.086 802.233 464.875 802.218C465.407 802.208 465.936 802.305 466.43 802.502C466.925 802.699 467.375 802.993 467.755 803.366C468.135 803.74 468.437 804.185 468.643 804.676C468.849 805.168 468.955 805.696 468.955 806.229Z" fill="url(#paint39_linear)"/>
<path d="M695.767 779.813C695.767 780.607 695.532 781.382 695.092 782.041C694.652 782.701 694.026 783.215 693.294 783.519C692.562 783.822 691.757 783.902 690.98 783.747C690.203 783.592 689.489 783.21 688.929 782.649C688.369 782.088 687.987 781.374 687.833 780.596C687.678 779.818 687.758 779.011 688.061 778.279C688.364 777.546 688.877 776.919 689.536 776.479C690.195 776.038 690.969 775.803 691.762 775.803C692.824 775.803 693.843 776.225 694.594 776.978C695.345 777.73 695.767 778.75 695.767 779.813Z" fill="url(#paint40_linear)"/>
<path d="M8.01125 442.829C8.01123 443.623 7.77567 444.399 7.33442 445.059C6.89318 445.719 6.26612 446.233 5.53275 446.536C4.79937 446.839 3.99271 446.917 3.21503 446.76C2.43735 446.603 1.72367 446.219 1.16447 445.656C0.605267 445.092 0.225732 444.375 0.0739777 443.596C-0.0777765 442.816 0.00508442 442.009 0.312056 441.277C0.619027 440.544 1.13628 439.92 1.79825 439.482C2.46022 439.044 3.23708 438.813 4.03035 438.818C5.08842 438.825 6.10092 439.25 6.84678 440.001C7.59265 440.753 8.01127 441.769 8.01125 442.829Z" fill="url(#paint41_linear)"/>
<path d="M129.713 671.009C129.713 671.803 129.477 672.579 129.036 673.24C128.595 673.9 127.968 674.414 127.234 674.716C126.501 675.019 125.694 675.097 124.917 674.94C124.139 674.784 123.425 674.399 122.866 673.836C122.307 673.273 121.927 672.556 121.776 671.776C121.624 670.996 121.707 670.189 122.014 669.457C122.321 668.724 122.838 668.1 123.5 667.662C124.162 667.224 124.939 666.993 125.732 666.998C126.257 666.998 126.777 667.102 127.261 667.304C127.746 667.506 128.186 667.802 128.556 668.174C128.926 668.547 129.218 668.99 129.417 669.476C129.616 669.962 129.716 670.483 129.713 671.009Z" fill="url(#paint42_linear)"/>
<path d="M128.452 720.398C128.452 721.191 128.217 721.967 127.777 722.626C127.337 723.286 126.711 723.8 125.979 724.103C125.247 724.407 124.442 724.486 123.665 724.331C122.888 724.177 122.174 723.795 121.614 723.234C121.054 722.673 120.672 721.958 120.518 721.18C120.363 720.402 120.442 719.596 120.746 718.863C121.049 718.13 121.562 717.504 122.221 717.063C122.88 716.623 123.654 716.387 124.446 716.387C125.507 716.394 126.522 716.819 127.272 717.569C128.021 718.32 128.445 719.336 128.452 720.398Z" stroke="url(#paint43_linear)" stroke-width="0.52" stroke-miterlimit="10"/>
<path d="M95.3685 466.496C95.3734 467.29 95.1426 468.068 94.7055 468.731C94.2683 469.393 93.6444 469.911 92.9129 470.219C92.1815 470.526 91.3753 470.609 90.5967 470.457C89.818 470.305 89.102 469.925 88.5393 469.365C87.9766 468.805 87.5927 468.091 87.4361 467.312C87.2795 466.533 87.3574 465.726 87.6598 464.992C87.9623 464.257 88.4756 463.629 89.1349 463.188C89.7941 462.746 90.5696 462.51 91.3628 462.51C91.8877 462.507 92.408 462.607 92.8939 462.806C93.3797 463.005 93.8215 463.298 94.1938 463.669C94.566 464.039 94.8615 464.479 95.0631 464.965C95.2647 465.45 95.3685 465.97 95.3685 466.496Z" stroke="url(#paint44_linear)" stroke-width="0.52" stroke-miterlimit="10"/>
<path d="M343.717 176.895C343.717 177.688 343.482 178.463 343.042 179.123C342.602 179.782 341.976 180.296 341.244 180.6C340.512 180.903 339.707 180.983 338.93 180.828C338.153 180.673 337.439 180.291 336.879 179.731C336.319 179.17 335.937 178.455 335.783 177.677C335.628 176.899 335.708 176.093 336.011 175.36C336.314 174.627 336.827 174.001 337.486 173.56C338.145 173.119 338.919 172.884 339.711 172.884C340.774 172.884 341.793 173.307 342.544 174.059C343.295 174.811 343.717 175.831 343.717 176.895V176.895Z" stroke="url(#paint45_linear)" stroke-width="0.52" stroke-miterlimit="10"/>
<path d="M538.187 14.418C538.187 15.208 537.954 15.9804 537.517 16.6382C537.08 17.296 536.459 17.81 535.731 18.1156C535.004 18.4212 534.202 18.5048 533.427 18.356C532.652 18.2072 531.939 17.8325 531.376 17.279C530.813 16.7256 530.425 16.0179 530.262 15.2449C530.1 14.4719 530.168 13.6679 530.46 12.934C530.752 12.2 531.254 11.5686 531.903 11.1191C532.552 10.6696 533.319 10.422 534.108 10.4074C534.639 10.4009 535.166 10.4996 535.66 10.6979C536.153 10.8962 536.602 11.1902 536.981 11.563C537.36 11.9357 537.662 12.3798 537.869 12.8698C538.076 13.3598 538.184 13.8859 538.187 14.418V14.418Z" stroke="url(#paint46_linear)" stroke-width="0.52" stroke-miterlimit="10"/>
<path d="M422.346 156.099C422.351 156.893 422.12 157.671 421.683 158.334C421.246 158.997 420.622 159.515 419.891 159.822C419.159 160.129 418.353 160.212 417.574 160.06C416.796 159.909 416.08 159.529 415.517 158.969C414.954 158.409 414.57 157.694 414.414 156.916C414.257 156.137 414.335 155.329 414.637 154.595C414.94 153.861 415.453 153.233 416.113 152.791C416.772 152.349 417.547 152.113 418.34 152.113C418.865 152.11 419.386 152.211 419.871 152.41C420.357 152.609 420.799 152.902 421.171 153.272C421.544 153.642 421.839 154.083 422.041 154.568C422.242 155.053 422.346 155.574 422.346 156.099V156.099Z" stroke="url(#paint47_linear)" stroke-width="0.52" stroke-miterlimit="10"/>
<path d="M736.095 171.943C736.095 172.737 735.86 173.512 735.42 174.171C734.98 174.831 734.354 175.345 733.622 175.649C732.89 175.952 732.085 176.032 731.308 175.877C730.531 175.722 729.817 175.34 729.257 174.779C728.697 174.218 728.315 173.504 728.161 172.726C728.006 171.948 728.085 171.141 728.389 170.409C728.692 169.676 729.205 169.049 729.864 168.609C730.523 168.168 731.297 167.933 732.089 167.933C733.152 167.933 734.171 168.355 734.922 169.107C735.673 169.86 736.095 170.88 736.095 171.943V171.943Z" stroke="url(#paint48_linear)" stroke-width="0.52" stroke-miterlimit="10"/>
<path d="M710.009 279.906C710.014 280.701 709.783 281.478 709.346 282.141C708.909 282.804 708.285 283.322 707.553 283.629C706.822 283.937 706.016 284.019 705.237 283.868C704.459 283.716 703.743 283.336 703.18 282.776C702.617 282.216 702.233 281.501 702.077 280.723C701.92 279.944 701.998 279.136 702.3 278.402C702.603 277.668 703.116 277.04 703.775 276.598C704.435 276.156 705.21 275.921 706.003 275.921C706.528 275.917 707.049 276.018 707.534 276.217C708.02 276.416 708.462 276.709 708.834 277.079C709.207 277.45 709.502 277.89 709.704 278.375C709.905 278.86 710.009 279.381 710.009 279.906Z" stroke="url(#paint49_linear)" stroke-width="0.52" stroke-miterlimit="10"/>
<path d="M826.79 453.152C826.79 453.945 826.555 454.721 826.115 455.38C825.675 456.04 825.049 456.554 824.317 456.857C823.585 457.161 822.78 457.24 822.003 457.086C821.226 456.931 820.512 456.549 819.952 455.988C819.392 455.427 819.01 454.712 818.856 453.934C818.701 453.157 818.781 452.35 819.084 451.617C819.387 450.884 819.9 450.258 820.559 449.817C821.218 449.377 821.992 449.141 822.785 449.141C823.845 449.148 824.86 449.573 825.61 450.323C826.36 451.074 826.784 452.09 826.79 453.152Z" stroke="url(#paint50_linear)" stroke-width="0.52" stroke-miterlimit="10"/>
<path d="M767.769 320.779C767.774 321.573 767.543 322.351 767.106 323.014C766.669 323.677 766.045 324.195 765.314 324.502C764.582 324.809 763.776 324.892 762.997 324.74C762.219 324.589 761.503 324.209 760.94 323.649C760.377 323.089 759.993 322.374 759.837 321.596C759.68 320.817 759.758 320.009 760.061 319.275C760.363 318.541 760.876 317.913 761.536 317.471C762.195 317.029 762.97 316.793 763.764 316.793C764.822 316.793 765.837 317.213 766.587 317.959C767.338 318.706 767.763 319.72 767.769 320.779V320.779Z" stroke="url(#paint51_linear)" stroke-width="0.52" stroke-miterlimit="10"/>
<path d="M521.226 715.15C521.226 715.943 520.991 716.718 520.551 717.378C520.111 718.037 519.485 718.551 518.753 718.855C518.021 719.158 517.216 719.238 516.439 719.083C515.662 718.928 514.948 718.546 514.388 717.985C513.827 717.425 513.446 716.71 513.291 715.932C513.137 715.154 513.216 714.348 513.519 713.615C513.822 712.882 514.336 712.256 514.995 711.815C515.653 711.374 516.428 711.139 517.22 711.139C518.28 711.145 519.296 711.57 520.045 712.321C520.795 713.071 521.219 714.088 521.226 715.15V715.15Z" stroke="url(#paint52_linear)" stroke-width="0.52" stroke-miterlimit="10"/>
<defs>
<linearGradient id="paint0_linear" x1="467.232" y1="774.323" x2="635.089" y2="774.323" gradientUnits="userSpaceOnUse">
<stop stop-color="#F1E369"/>
<stop offset="1" stop-color="#FFA944"/>
</linearGradient>
<linearGradient id="paint1_linear" x1="93.2956" y1="681.505" x2="323.368" y2="681.505" gradientUnits="userSpaceOnUse">
<stop stop-color="#F1E369"/>
<stop offset="1" stop-color="#FFA944"/>
</linearGradient>
<linearGradient id="paint2_linear" x1="328.64" y1="777.017" x2="510.569" y2="777.017" gradientUnits="userSpaceOnUse">
<stop stop-color="#F1E369"/>
<stop offset="1" stop-color="#FFA944"/>
</linearGradient>
<linearGradient id="paint3_linear" x1="509.81" y1="696.314" x2="718.416" y2="696.314" gradientUnits="userSpaceOnUse">
<stop stop-color="#F1E369"/>
<stop offset="1" stop-color="#FFA944"/>
</linearGradient>
<linearGradient id="paint4_linear" x1="530.368" y1="725.452" x2="763.319" y2="725.452" gradientUnits="userSpaceOnUse">
<stop stop-color="#F1E369"/>
<stop offset="1" stop-color="#FFA944"/>
</linearGradient>
<linearGradient id="paint5_linear" x1="151.702" y1="688.451" x2="353.731" y2="688.451" gradientUnits="userSpaceOnUse">
<stop stop-color="#F1E369"/>
<stop offset="1" stop-color="#FFA944"/>
</linearGradient>
<linearGradient id="paint6_linear" x1="297.024" y1="819.813" x2="503.744" y2="819.813" gradientUnits="userSpaceOnUse">
<stop stop-color="#F1E369"/>
<stop offset="1" stop-color="#FFA944"/>
</linearGradient>
<linearGradient id="paint7_linear" x1="387.591" y1="747.371" x2="554.952" y2="747.371" gradientUnits="userSpaceOnUse">
<stop stop-color="#F1E369"/>
<stop offset="1" stop-color="#FFA944"/>
</linearGradient>
<linearGradient id="paint8_linear" x1="127.222" y1="785.137" x2="417.92" y2="785.137" gradientUnits="userSpaceOnUse">
<stop stop-color="#F1E369"/>
<stop offset="1" stop-color="#FFA944"/>
</linearGradient>
<linearGradient id="paint9_linear" x1="93.2869" y1="601.927" x2="434.511" y2="601.927" gradientUnits="userSpaceOnUse">
<stop stop-color="#F1E369"/>
<stop offset="1" stop-color="#FFA944"/>
</linearGradient>
<linearGradient id="paint10_linear" x1="519.472" y1="579.053" x2="784.014" y2="579.053" gradientUnits="userSpaceOnUse">
<stop stop-color="#F1E369"/>
<stop offset="1" stop-color="#FFA944"/>
</linearGradient>
<linearGradient id="paint11_linear" x1="693.863" y1="616.275" x2="823.131" y2="616.275" gradientUnits="userSpaceOnUse">
<stop stop-color="#F1E369"/>
<stop offset="1" stop-color="#FFA944"/>
</linearGradient>
<linearGradient id="paint12_linear" x1="613.742" y1="538.599" x2="724.746" y2="538.599" gradientUnits="userSpaceOnUse">
<stop stop-color="#F1E369"/>
<stop offset="1" stop-color="#FFA944"/>
</linearGradient>
<linearGradient id="paint13_linear" x1="3.66727" y1="556.357" x2="123.902" y2="556.357" gradientUnits="userSpaceOnUse">
<stop stop-color="#F1E369"/>
<stop offset="1" stop-color="#FFA944"/>
</linearGradient>
<linearGradient id="paint14_linear" x1="324.842" y1="846.439" x2="633.309" y2="846.439" gradientUnits="userSpaceOnUse">
<stop stop-color="#F1E369"/>
<stop offset="1" stop-color="#FFA944"/>
</linearGradient>
<linearGradient id="paint15_linear" x1="220.787" y1="117.918" x2="388.644" y2="117.918" gradientUnits="userSpaceOnUse">
<stop stop-color="#F1E369"/>
<stop offset="1" stop-color="#FFA944"/>
</linearGradient>
<linearGradient id="paint16_linear" x1="532.282" y1="209.622" x2="762.354" y2="209.622" gradientUnits="userSpaceOnUse">
<stop stop-color="#F1E369"/>
<stop offset="1" stop-color="#FFA944"/>
</linearGradient>
<linearGradient id="paint17_linear" x1="345.256" y1="115.573" x2="527.234" y2="115.573" gradientUnits="userSpaceOnUse">
<stop stop-color="#F1E369"/>
<stop offset="1" stop-color="#FFA944"/>
</linearGradient>
<linearGradient id="paint18_linear" x1="137.312" y1="195.231" x2="345.918" y2="195.231" gradientUnits="userSpaceOnUse">
<stop stop-color="#F1E369"/>
<stop offset="1" stop-color="#FFA944"/>
</linearGradient>
<linearGradient id="paint19_linear" x1="92.3206" y1="165.894" x2="325.271" y2="165.894" gradientUnits="userSpaceOnUse">
<stop stop-color="#F1E369"/>
<stop offset="1" stop-color="#FFA944"/>
</linearGradient>
<linearGradient id="paint20_linear" x1="502.021" y1="203.249" x2="704.05" y2="203.249" gradientUnits="userSpaceOnUse">
<stop stop-color="#F1E369"/>
<stop offset="1" stop-color="#FFA944"/>
</linearGradient>
<linearGradient id="paint21_linear" x1="351.99" y1="72.7222" x2="558.71" y2="72.7222" gradientUnits="userSpaceOnUse">
<stop stop-color="#F1E369"/>
<stop offset="1" stop-color="#FFA944"/>
</linearGradient>
<linearGradient id="paint22_linear" x1="300.926" y1="145.144" x2="468.287" y2="145.144" gradientUnits="userSpaceOnUse">
<stop stop-color="#F1E369"/>
<stop offset="1" stop-color="#FFA944"/>
</linearGradient>
<linearGradient id="paint23_linear" x1="437.385" y1="106.636" x2="728.208" y2="106.636" gradientUnits="userSpaceOnUse">
<stop stop-color="#F1E369"/>
<stop offset="1" stop-color="#FFA944"/>
</linearGradient>
<linearGradient id="paint24_linear" x1="420.734" y1="288.881" x2="761.934" y2="288.881" gradientUnits="userSpaceOnUse">
<stop stop-color="#F1E369"/>
<stop offset="1" stop-color="#FFA944"/>
</linearGradient>
<linearGradient id="paint25_linear" x1="71.5102" y1="311.683" x2="336.052" y2="311.683" gradientUnits="userSpaceOnUse">
<stop stop-color="#F1E369"/>
<stop offset="1" stop-color="#FFA944"/>
</linearGradient>
<linearGradient id="paint26_linear" x1="32.8859" y1="274.19" x2="162.03" y2="274.19" gradientUnits="userSpaceOnUse">
<stop stop-color="#F1E369"/>
<stop offset="1" stop-color="#FFA944"/>
</linearGradient>
<linearGradient id="paint27_linear" x1="131.337" y1="352.988" x2="242.34" y2="352.988" gradientUnits="userSpaceOnUse">
<stop stop-color="#F1E369"/>
<stop offset="1" stop-color="#FFA944"/>
</linearGradient>
<linearGradient id="paint28_linear" x1="732.147" y1="334.725" x2="852.382" y2="334.725" gradientUnits="userSpaceOnUse">
<stop stop-color="#F1E369"/>
<stop offset="1" stop-color="#FFA944"/>
</linearGradient>
<linearGradient id="paint29_linear" x1="222.055" y1="45.5927" x2="530.72" y2="45.5927" gradientUnits="userSpaceOnUse">
<stop stop-color="#F1E369"/>
<stop offset="1" stop-color="#FFA944"/>
</linearGradient>
<linearGradient id="paint30_linear" x1="157.945" y1="114.454" x2="165.986" y2="114.454" gradientUnits="userSpaceOnUse">
<stop stop-color="#F1E369"/>
<stop offset="1" stop-color="#FFA944"/>
</linearGradient>
<linearGradient id="paint31_linear" x1="527.6" y1="102.819" x2="535.641" y2="102.819" gradientUnits="userSpaceOnUse">
<stop stop-color="#F1E369"/>
<stop offset="1" stop-color="#FFA944"/>
</linearGradient>
<linearGradient id="paint32_linear" x1="88.0452" y1="259.676" x2="96.0858" y2="259.676" gradientUnits="userSpaceOnUse">
<stop stop-color="#F1E369"/>
<stop offset="1" stop-color="#FFA944"/>
</linearGradient>
<linearGradient id="paint33_linear" x1="727.016" y1="221.427" x2="735.057" y2="221.427" gradientUnits="userSpaceOnUse">
<stop stop-color="#F1E369"/>
<stop offset="1" stop-color="#FFA944"/>
</linearGradient>
<linearGradient id="paint34_linear" x1="557.469" y1="84.994" x2="565.51" y2="84.994" gradientUnits="userSpaceOnUse">
<stop stop-color="#F1E369"/>
<stop offset="1" stop-color="#FFA944"/>
</linearGradient>
<linearGradient id="paint35_linear" x1="715.568" y1="616.763" x2="723.608" y2="616.763" gradientUnits="userSpaceOnUse">
<stop stop-color="#F1E369"/>
<stop offset="1" stop-color="#FFA944"/>
</linearGradient>
<linearGradient id="paint36_linear" x1="720.736" y1="460.129" x2="728.776" y2="460.129" gradientUnits="userSpaceOnUse">
<stop stop-color="#F1E369"/>
<stop offset="1" stop-color="#FFA944"/>
</linearGradient>
<linearGradient id="paint37_linear" x1="432.726" y1="736.683" x2="440.767" y2="736.683" gradientUnits="userSpaceOnUse">
<stop stop-color="#F1E369"/>
<stop offset="1" stop-color="#FFA944"/>
</linearGradient>
<linearGradient id="paint38_linear" x1="291.961" y1="807.412" x2="300.002" y2="807.412" gradientUnits="userSpaceOnUse">
<stop stop-color="#F1E369"/>
<stop offset="1" stop-color="#FFA944"/>
</linearGradient>
<linearGradient id="paint39_linear" x1="460.914" y1="806.199" x2="468.955" y2="806.199" gradientUnits="userSpaceOnUse">
<stop stop-color="#F1E369"/>
<stop offset="1" stop-color="#FFA944"/>
</linearGradient>
<linearGradient id="paint40_linear" x1="687.727" y1="779.784" x2="695.767" y2="779.784" gradientUnits="userSpaceOnUse">
<stop stop-color="#F1E369"/>
<stop offset="1" stop-color="#FFA944"/>
</linearGradient>
<linearGradient id="paint41_linear" x1="-0.0292381" y1="442.799" x2="8.01125" y2="442.799" gradientUnits="userSpaceOnUse">
<stop stop-color="#F1E369"/>
<stop offset="1" stop-color="#FFA944"/>
</linearGradient>
<linearGradient id="paint42_linear" x1="121.672" y1="670.979" x2="129.713" y2="670.979" gradientUnits="userSpaceOnUse">
<stop stop-color="#F1E369"/>
<stop offset="1" stop-color="#FFA944"/>
</linearGradient>
<linearGradient id="paint43_linear" x1="120.411" y1="720.369" x2="128.452" y2="720.369" gradientUnits="userSpaceOnUse">
<stop stop-color="#F1E369"/>
<stop offset="1" stop-color="#FFA944"/>
</linearGradient>
<linearGradient id="paint44_linear" x1="87.3281" y1="466.491" x2="95.3686" y2="466.491" gradientUnits="userSpaceOnUse">
<stop stop-color="#F1E369"/>
<stop offset="1" stop-color="#FFA944"/>
</linearGradient>
<linearGradient id="paint45_linear" x1="335.677" y1="176.865" x2="343.717" y2="176.865" gradientUnits="userSpaceOnUse">
<stop stop-color="#F1E369"/>
<stop offset="1" stop-color="#FFA944"/>
</linearGradient>
<linearGradient id="paint46_linear" x1="530.147" y1="14.3882" x2="538.187" y2="14.3882" gradientUnits="userSpaceOnUse">
<stop stop-color="#F1E369"/>
<stop offset="1" stop-color="#FFA944"/>
</linearGradient>
<linearGradient id="paint47_linear" x1="414.306" y1="156.095" x2="422.346" y2="156.095" gradientUnits="userSpaceOnUse">
<stop stop-color="#F1E369"/>
<stop offset="1" stop-color="#FFA944"/>
</linearGradient>
<linearGradient id="paint48_linear" x1="728.055" y1="171.914" x2="736.095" y2="171.914" gradientUnits="userSpaceOnUse">
<stop stop-color="#F1E369"/>
<stop offset="1" stop-color="#FFA944"/>
</linearGradient>
<linearGradient id="paint49_linear" x1="701.969" y1="279.902" x2="710.009" y2="279.902" gradientUnits="userSpaceOnUse">
<stop stop-color="#F1E369"/>
<stop offset="1" stop-color="#FFA944"/>
</linearGradient>
<linearGradient id="paint50_linear" x1="818.75" y1="453.123" x2="826.79" y2="453.123" gradientUnits="userSpaceOnUse">
<stop stop-color="#F1E369"/>
<stop offset="1" stop-color="#FFA944"/>
</linearGradient>
<linearGradient id="paint51_linear" x1="759.729" y1="320.775" x2="767.769" y2="320.775" gradientUnits="userSpaceOnUse">
<stop stop-color="#F1E369"/>
<stop offset="1" stop-color="#FFA944"/>
</linearGradient>
<linearGradient id="paint52_linear" x1="513.185" y1="715.12" x2="521.226" y2="715.12" gradientUnits="userSpaceOnUse">
<stop stop-color="#F1E369"/>
<stop offset="1" stop-color="#FFA944"/>
</linearGradient>
</defs>
</svg>
