<svg width="186" height="79" viewBox="0 0 186 79" fill="none" xmlns="http://www.w3.org/2000/svg">
<rect width="184.532" height="75" rx="18" transform="matrix(0.999835 0.0181401 0.0197313 0.999805 0 0)" fill="url(#paint0_linear)"/>
<path d="M53.6697 35.2731L53.4901 26.1749L59.4302 26.2826L59.4566 27.6214L55.1803 27.5438L55.2295 30.0393L59.1159 30.1098L59.1416 31.4096L55.2552 31.3391L55.307 33.9645L59.5833 34.0421L59.6097 35.3809L53.6697 35.2731ZM64.3067 35.622C63.6481 35.6101 63.0647 35.4565 62.5565 35.1615C62.0483 34.8664 61.6418 34.4606 61.3371 33.944C61.041 33.4276 60.8865 32.8401 60.8735 32.1816C60.8605 31.523 60.992 30.9407 61.2678 30.4347C61.5523 29.9288 61.9431 29.5375 62.44 29.2606C62.937 28.9838 63.5147 28.8514 64.1733 28.8633C64.9965 28.8783 65.694 29.1075 66.2658 29.5509C66.8374 29.9857 67.2086 30.5815 67.3795 31.3381L65.6248 31.3063C65.5319 30.9928 65.3539 30.747 65.0905 30.569C64.8356 30.3825 64.5348 30.2861 64.1882 30.2798C63.729 30.2715 63.3425 30.4377 63.0287 30.7785C62.7149 31.1193 62.5641 31.5973 62.5762 32.2125C62.5884 32.8277 62.7582 33.3115 63.0856 33.6639C63.4131 34.0163 63.8064 34.1967 64.2657 34.205C64.6123 34.2113 64.9095 34.1301 65.1574 33.9614C65.414 33.7928 65.5824 33.549 65.6627 33.2299L67.4174 33.2618C67.2758 33.9868 66.9278 34.5652 66.3732 34.9969C65.8187 35.4286 65.1299 35.6369 64.3067 35.622ZM72.0353 35.7622C71.4114 35.7509 70.8453 35.5977 70.3371 35.3026C69.8376 35.0077 69.4355 34.6063 69.131 34.0984C68.8349 33.582 68.6803 32.9902 68.6672 32.323C68.654 31.6558 68.7898 31.0736 69.0745 30.5763C69.359 30.0705 69.7454 29.679 70.2337 29.402C70.7306 29.1252 71.291 28.9925 71.9149 29.0038C72.5302 29.0149 73.0875 29.168 73.5871 29.4629C74.0953 29.7579 74.4975 30.1637 74.7935 30.6801C75.0981 31.188 75.2569 31.7756 75.2701 32.4428C75.2832 33.11 75.1476 33.6965 74.863 34.2024C74.587 34.6998 74.2005 35.0869 73.7036 35.3637C73.2066 35.6406 72.6505 35.7734 72.0353 35.7622ZM72.0068 34.3195C72.4401 34.3274 72.8139 34.1739 73.1282 33.8591C73.4423 33.5357 73.593 33.0533 73.5803 32.4121C73.5677 31.7709 73.3979 31.2871 73.071 30.9607C72.7438 30.6256 72.368 30.4542 71.9434 30.4465C71.5015 30.4385 71.1234 30.5962 70.8093 30.9196C70.5037 31.2346 70.3572 31.7127 70.3699 32.3539C70.3825 32.9951 70.5481 33.4832 70.8665 33.8181C71.1935 34.1445 71.5736 34.3116 72.0068 34.3195ZM76.8212 35.6931L76.694 29.2464L78.1628 29.273L78.3143 30.3672C78.5061 29.9895 78.786 29.6915 79.1542 29.4729C79.531 29.2546 79.9751 29.15 80.4863 29.1593C81.2835 29.1737 81.908 29.4363 82.3599 29.9469C82.8117 30.4574 83.0472 31.198 83.0664 32.1685L83.1382 35.8077L81.4745 35.7776L81.4057 32.2942C81.3948 31.7397 81.2737 31.3131 81.0426 31.0144C80.8115 30.7157 80.4577 30.562 79.9811 30.5533C79.5132 30.5449 79.1308 30.7025 78.834 31.0263C78.5459 31.3502 78.4077 31.8068 78.4193 32.396L78.485 35.7233L76.8212 35.6931ZM87.8257 36.0487C87.2018 36.0374 86.6357 35.8842 86.1275 35.5891C85.6279 35.2942 85.2259 34.8928 84.9213 34.3849C84.6253 33.8685 84.4707 33.2767 84.4575 32.6095C84.4444 31.9423 84.5801 31.36 84.8648 30.8628C85.1494 30.3569 85.5358 29.9655 86.024 29.6885C86.521 29.4117 87.0814 29.2789 87.7053 29.2903C88.3205 29.3014 88.8779 29.4545 89.3775 29.7494C89.8857 30.0444 90.2878 30.4502 90.5839 30.9666C90.8884 31.4745 91.0473 32.0621 91.0604 32.7293C91.0736 33.3965 90.9379 33.983 90.6534 34.4889C90.3774 34.9863 89.9909 35.3734 89.4939 35.6502C88.997 35.927 88.4409 36.0599 87.8257 36.0487ZM87.7972 34.606C88.2305 34.6138 88.6042 34.4604 88.9185 34.1456C89.2326 33.8221 89.3834 33.3398 89.3707 32.6986C89.3581 32.0574 89.1883 31.5736 88.8613 31.2472C88.5342 30.9121 88.1584 30.7407 87.7338 30.733C87.2918 30.725 86.9138 30.8827 86.5997 31.2061C86.2941 31.5211 86.1476 31.9992 86.1602 32.6404C86.1729 33.2816 86.3385 33.7696 86.6569 34.1046C86.9838 34.431 87.3639 34.5981 87.7972 34.606ZM92.6116 35.9796L92.4844 29.5329L93.9531 29.5595L94.1133 30.433C94.3151 30.1248 94.5832 29.8828 94.9175 29.707C95.2604 29.5226 95.6571 29.4345 96.1077 29.4427C97.1042 29.4608 97.818 29.8592 98.2492 30.6379C98.4761 30.2869 98.7825 30.0109 99.1684 29.8101C99.5628 29.6093 99.9941 29.5132 100.462 29.5217C101.303 29.537 101.953 29.8 102.414 30.3107C102.874 30.8214 103.114 31.562 103.133 32.5325L103.205 36.1718L101.541 36.1416L101.472 32.6583C101.461 32.1038 101.345 31.6772 101.122 31.3787C100.909 31.0803 100.581 30.9271 100.139 30.9191C99.6881 30.9109 99.3275 31.0689 99.0567 31.3932C98.7945 31.7176 98.6693 32.1744 98.6809 32.7636L98.7466 36.0909L97.0829 36.0607L97.0141 32.5774C97.0032 32.0229 96.8865 31.5963 96.664 31.2978C96.4416 30.9992 96.1051 30.8459 95.6545 30.8377C95.2126 30.8297 94.8562 30.9878 94.5854 31.312C94.3233 31.6364 94.198 32.0932 94.2097 32.6825L94.2753 36.0098L92.6116 35.9796ZM105.534 28.7692C105.231 28.7637 104.978 28.6682 104.775 28.4826C104.581 28.2972 104.481 28.0658 104.475 27.7885C104.47 27.5112 104.561 27.2877 104.748 27.1178C104.944 26.9395 105.193 26.8531 105.497 26.8586C105.8 26.8641 106.049 26.9595 106.243 27.145C106.446 27.3219 106.55 27.549 106.555 27.8263C106.561 28.1035 106.465 28.3313 106.27 28.5097C106.083 28.6882 105.838 28.7747 105.534 28.7692ZM104.849 36.2017L104.722 29.7549L106.386 29.7851L106.513 36.2318L104.849 36.2017ZM107.834 36.2558L107.807 34.9171L111.022 31.2464L107.773 31.1875L107.745 29.8098L112.893 29.9031L112.919 31.2419L109.652 34.9116L113.058 34.9733L113.085 36.3511L107.834 36.2558ZM117.605 36.589C116.955 36.5772 116.376 36.4281 115.868 36.1417C115.36 35.8553 114.958 35.4582 114.662 34.9505C114.366 34.4427 114.212 33.8596 114.199 33.201C114.186 32.5338 114.313 31.9428 114.58 31.4279C114.855 30.9132 115.237 30.5174 115.726 30.2404C116.222 29.9549 116.809 29.8183 117.485 29.8305C118.117 29.842 118.679 29.9908 119.169 30.2769C119.66 30.563 120.045 30.9511 120.323 31.4412C120.61 31.9228 120.759 32.4582 120.77 33.0474C120.772 33.1427 120.77 33.2423 120.763 33.3461C120.765 33.4501 120.763 33.5583 120.757 33.6708L115.856 33.5819C115.901 34.0851 116.082 34.4825 116.4 34.7741C116.726 35.0659 117.114 35.2158 117.565 35.224C117.903 35.2302 118.183 35.1616 118.405 35.0184C118.636 34.8667 118.806 34.6705 118.914 34.4299L120.603 34.4606C120.49 34.8657 120.294 35.2346 120.014 35.5673C119.744 35.8915 119.402 36.1452 118.99 36.3283C118.587 36.5115 118.125 36.5984 117.605 36.589ZM117.511 31.1823C117.104 31.1749 116.747 31.2853 116.439 31.5136C116.132 31.7333 115.939 32.0763 115.862 32.5426L119.072 32.6008C119.038 32.1758 118.875 31.835 118.584 31.5785C118.294 31.3221 117.936 31.19 117.511 31.1823ZM56.8189 51.3214C56.143 51.3091 55.5982 51.1347 55.1845 50.798C54.7707 50.4614 54.5555 49.8728 54.5389 49.0323L54.4835 46.2248L53.3787 46.2048L53.3513 44.814L54.4561 44.8341L54.6169 43.109L56.0857 43.1356L56.1198 44.8643L57.8615 44.8959L57.889 46.2866L56.1473 46.255L56.2029 49.0755C56.2091 49.3874 56.2783 49.6052 56.4107 49.7289C56.5516 49.844 56.7866 49.9046 57.1159 49.9106L57.9218 49.9252L57.9498 51.3419L56.8189 51.3214ZM62.3877 51.5783C61.7378 51.5666 61.1589 51.4175 60.6508 51.1311C60.1428 50.8447 59.7408 50.4476 59.4449 49.9398C59.1491 49.4321 58.9946 48.8489 58.9816 48.1904C58.9685 47.5232 59.0954 46.9321 59.3624 46.4173C59.6381 45.9026 60.0201 45.5067 60.5084 45.2297C61.0051 44.9442 61.5915 44.8076 62.2674 44.8199C62.8999 44.8314 63.4616 44.9802 63.9523 45.2662C64.443 45.5523 64.8275 45.9404 65.1057 46.4305C65.3924 46.9121 65.5415 47.4475 65.5532 48.0368C65.555 48.1321 65.5527 48.2316 65.5461 48.3355C65.5481 48.4394 65.5459 48.5477 65.5395 48.6602L60.6393 48.5713C60.6839 49.0745 60.8649 49.4719 61.1825 49.7635C61.5088 50.0552 61.8972 50.2052 62.3478 50.2134C62.6858 50.2195 62.9659 50.151 63.1883 50.0077C63.4192 49.856 63.5886 49.6599 63.6964 49.4193L65.3861 49.4499C65.2729 49.855 65.0766 50.2239 64.7973 50.5566C64.5265 50.8809 64.185 51.1345 63.7729 51.3176C63.3694 51.5009 62.9077 51.5878 62.3877 51.5783ZM62.294 46.1716C61.8868 46.1642 61.5295 46.2747 61.2221 46.503C60.9146 46.7226 60.7222 47.0656 60.6448 47.5319L63.8552 47.5902C63.8209 47.1651 63.6582 46.8244 63.3673 46.5679C63.0764 46.3114 62.7186 46.1793 62.294 46.1716ZM67.0204 51.5065L66.8932 45.0597L68.362 45.0864L68.5221 45.9598C68.7239 45.6516 68.992 45.4096 69.3264 45.2338C69.6692 45.0495 70.0659 44.9614 70.5165 44.9696C71.513 44.9876 72.2269 45.386 72.658 46.1648C72.885 45.8138 73.1914 45.5378 73.5772 45.3369C73.9717 45.1362 74.4029 45.0401 74.8708 45.0486C75.7113 45.0638 76.3619 45.3268 76.8224 45.8375C77.2829 46.3483 77.5227 47.0889 77.5419 48.0594L77.6137 51.6987L75.95 51.6685L75.8812 48.1852C75.8703 47.6306 75.7536 47.2041 75.5311 46.9055C75.3174 46.6071 74.9895 46.4539 74.5476 46.4459C74.097 46.4377 73.7363 46.5958 73.4655 46.92C73.2034 47.2444 73.0781 47.7012 73.0898 48.2904L73.1554 51.6178L71.4917 51.5876L71.423 48.1043C71.412 47.5497 71.2953 47.1232 71.0729 46.8246C70.8504 46.5261 70.5139 46.3727 70.0633 46.3646C69.6214 46.3565 69.265 46.5147 68.9942 46.8389C68.7321 47.1633 68.6069 47.6201 68.6185 48.2093L68.6842 51.5367L67.0204 51.5065ZM79.2497 54.5868L79.066 45.2806L80.5478 45.3075L80.7479 46.2336C80.9503 45.9514 81.2183 45.7051 81.5519 45.4946C81.8943 45.2843 82.3384 45.184 82.8843 45.1939C83.4909 45.205 84.0353 45.3621 84.5178 45.6653C85.0002 45.9686 85.385 46.3784 85.6724 46.8946C85.9598 47.4109 86.1099 47.994 86.1227 48.6438C86.1356 49.2937 86.0084 49.8717 85.7412 50.3779C85.4738 50.8755 85.1047 51.2672 84.6339 51.5532C84.163 51.8305 83.6242 51.9636 83.0177 51.9526C82.5324 51.9438 82.106 51.8451 81.7385 51.6566C81.371 51.468 81.0713 51.207 80.8395 50.8737L80.9134 54.617L79.2497 54.5868ZM82.638 50.4905C83.1666 50.5001 83.6007 50.3304 83.9403 49.9815C84.2799 49.6325 84.4441 49.1764 84.433 48.6132C84.4219 48.0499 84.2394 47.5832 83.8856 47.213C83.5319 46.8428 83.0907 46.6529 82.5621 46.6433C82.0248 46.6336 81.5865 46.8075 81.2471 47.1651C80.9161 47.5143 80.7562 47.9704 80.7673 48.5337C80.7785 49.0969 80.9566 49.5635 81.3017 49.9336C81.6553 50.2952 82.1008 50.4808 82.638 50.4905ZM90.7689 52.0933C90.145 52.0819 89.5789 51.9288 89.0707 51.6337C88.5711 51.3388 88.1691 50.9374 87.8645 50.4295C87.5685 49.913 87.4139 49.3212 87.4007 48.654C87.3876 47.9868 87.5233 47.4046 87.808 46.9074C88.0926 46.4015 88.479 46.0101 88.9672 45.7331C89.4642 45.4562 90.0246 45.3235 90.6485 45.3348C91.2637 45.346 91.8211 45.499 92.3207 45.7939C92.8289 46.089 93.231 46.4947 93.5271 47.0111C93.8316 47.5191 93.9905 48.1066 94.0036 48.7738C94.0168 49.441 93.8811 50.0276 93.5966 50.5335C93.3206 51.0308 92.9341 51.4179 92.4371 51.6948C91.9402 51.9716 91.3841 52.1044 90.7689 52.0933ZM90.7404 50.6505C91.1737 50.6584 91.5474 50.5049 91.8617 50.1902C92.1758 49.8667 92.3266 49.3844 92.3139 48.7432C92.3013 48.102 92.1315 47.6181 91.8045 47.2917C91.4774 46.9566 91.1016 46.7852 90.677 46.7775C90.235 46.7695 89.857 46.9272 89.5429 47.2507C89.2373 47.5656 89.0908 48.0437 89.1034 48.6849C89.1161 49.3261 89.2817 49.8142 89.6001 50.1491C89.927 50.4755 90.3071 50.6427 90.7404 50.6505ZM101.788 52.2932C101.138 52.2814 100.559 52.1323 100.051 51.8459C99.5425 51.5595 99.1406 51.1624 98.8447 50.6547C98.5488 50.1469 98.3944 49.5638 98.3814 48.9052C98.3682 48.238 98.4952 47.647 98.7622 47.1321C99.0379 46.6174 99.4199 46.2216 99.9081 45.9446C100.405 45.6591 100.991 45.5225 101.667 45.5347C102.3 45.5462 102.861 45.695 103.352 45.9811C103.843 46.2671 104.227 46.6552 104.505 47.1454C104.792 47.627 104.941 48.1624 104.953 48.7516C104.955 48.8469 104.952 48.9465 104.946 49.0503C104.948 49.1543 104.946 49.2625 104.939 49.375L100.039 49.2861C100.084 49.7893 100.265 50.1867 100.582 50.4783C100.909 50.7701 101.297 50.92 101.748 50.9282C102.086 50.9343 102.366 50.8658 102.588 50.7226C102.819 50.5709 102.988 50.3747 103.096 50.1341L104.786 50.1648C104.673 50.5698 104.476 50.9387 104.197 51.2715C103.926 51.5957 103.585 51.8494 103.173 52.0325C102.769 52.2157 102.307 52.3026 101.788 52.2932ZM101.694 46.8865C101.287 46.8791 100.929 46.9895 100.622 47.2178C100.314 47.4375 100.122 47.7804 100.045 48.2468L103.255 48.305C103.221 47.88 103.058 47.5392 102.767 47.2827C102.476 47.0263 102.118 46.8942 101.694 46.8865ZM112.484 52.4872C111.877 52.4762 111.333 52.3191 110.85 52.0158C110.368 51.7126 109.983 51.3028 109.696 50.7866C109.408 50.2703 109.258 49.6872 109.246 49.0374C109.233 48.3875 109.36 47.8138 109.627 47.3162C109.895 46.81 110.264 46.4183 110.735 46.141C111.205 45.855 111.744 45.7176 112.351 45.7286C112.836 45.7374 113.262 45.836 113.63 46.0246C113.997 46.2132 114.297 46.4741 114.529 46.8075L114.454 43.0122L116.118 43.0424L116.302 52.4006L114.82 52.3737L114.62 51.4476C114.418 51.7298 114.146 51.976 113.803 52.1864C113.47 52.3969 113.03 52.4971 112.484 52.4872ZM112.806 51.0379C113.343 51.0476 113.777 50.8779 114.108 50.5288C114.448 50.1712 114.612 49.7107 114.601 49.1475C114.59 48.5843 114.407 48.1219 114.054 47.7604C113.709 47.3903 113.267 47.2004 112.73 47.1906C112.202 47.181 111.768 47.3507 111.428 47.6997C111.088 48.0487 110.924 48.5048 110.935 49.068C110.946 49.6312 111.129 50.098 111.483 50.4682C111.836 50.8384 112.278 51.0283 112.806 51.0379ZM118.746 45.0001C118.443 44.9946 118.19 44.899 117.987 44.7134C117.793 44.528 117.693 44.2967 117.687 44.0194C117.682 43.7421 117.773 43.5185 117.96 43.3487C118.156 43.1704 118.405 43.0839 118.709 43.0894C119.012 43.0949 119.261 43.1904 119.455 43.3758C119.658 43.5527 119.762 43.7798 119.767 44.0571C119.773 44.3344 119.677 44.5622 119.482 44.7406C119.295 44.9191 119.05 45.0056 118.746 45.0001ZM118.061 52.4325L117.934 45.9858L119.598 46.016L119.725 52.4627L118.061 52.4325ZM121.462 52.4942L121.334 46.0475L122.803 46.0741L122.955 47.1683C123.147 46.7906 123.426 46.4925 123.795 46.274C124.171 46.0556 124.615 45.9511 125.127 45.9604C125.924 45.9748 126.548 46.2373 127 46.7479C127.452 47.2585 127.688 47.9991 127.707 48.9695L127.779 52.6088L126.115 52.5786L126.046 49.0953C126.035 48.5408 125.914 48.1141 125.683 47.8154C125.452 47.5167 125.098 47.3631 124.622 47.3544C124.154 47.3459 123.771 47.5036 123.474 47.8273C123.186 48.1513 123.048 48.6078 123.06 49.197L123.125 52.5244L121.462 52.4942ZM129.37 52.6377L129.185 43.2795L130.849 43.3097L130.926 47.2089C131.135 46.8576 131.42 46.5856 131.78 46.3929C132.148 46.1917 132.571 46.0954 133.048 46.1041C133.845 46.1185 134.465 46.381 134.908 46.8914C135.36 47.402 135.596 48.1425 135.615 49.113L135.687 52.7523L134.036 52.7223L133.967 49.239C133.956 48.6845 133.835 48.2578 133.604 47.9591C133.382 47.6606 133.032 47.507 132.555 47.4984C132.087 47.4899 131.701 47.6474 131.395 47.971C131.099 48.2948 130.956 48.7513 130.968 49.3405L131.033 52.6679L129.37 52.6377ZM140.413 52.994C139.763 52.9822 139.184 52.8331 138.676 52.5467C138.168 52.2603 137.766 51.8632 137.47 51.3554C137.174 50.8477 137.02 50.2645 137.007 49.606C136.994 48.9388 137.121 48.3478 137.388 47.8329C137.663 47.3182 138.045 46.9223 138.534 46.6454C139.03 46.3599 139.617 46.2232 140.293 46.2355C140.925 46.247 141.487 46.3958 141.978 46.6819C142.468 46.9679 142.853 47.356 143.131 47.8461C143.418 48.3277 143.567 48.8632 143.578 49.4524C143.58 49.5477 143.578 49.6473 143.571 49.7511C143.573 49.8551 143.571 49.9633 143.565 50.0758L138.665 49.9869C138.709 50.4901 138.89 50.8875 139.208 51.1791C139.534 51.4708 139.922 51.6208 140.373 51.629C140.711 51.6351 140.991 51.5666 141.214 51.4234C141.444 51.2716 141.614 51.0755 141.722 50.8349L143.411 50.8656C143.298 51.2706 143.102 51.6395 142.823 51.9723C142.552 52.2965 142.21 52.5502 141.798 52.7332C141.395 52.9165 140.933 53.0034 140.413 52.994ZM140.319 47.5872C139.912 47.5799 139.555 47.6903 139.247 47.9186C138.94 48.1382 138.747 48.4812 138.67 48.9476L141.88 49.0058C141.846 48.5807 141.683 48.24 141.393 47.9835C141.102 47.727 140.744 47.595 140.319 47.5872ZM145.796 45.4908C145.492 45.4853 145.239 45.3898 145.036 45.2042C144.842 45.0188 144.742 44.7874 144.737 44.5101C144.731 44.2329 144.822 44.0093 145.009 43.8395C145.205 43.6611 145.455 43.5747 145.758 43.5802C146.061 43.5857 146.31 43.6812 146.504 43.8666C146.707 44.0435 146.811 44.2706 146.816 44.5479C146.822 44.8252 146.727 45.053 146.531 45.2313C146.344 45.4098 146.099 45.4963 145.796 45.4908ZM145.111 52.9233L144.983 46.4765L146.647 46.5067L146.774 52.9535L145.111 52.9233ZM148.511 52.985L148.384 46.5382L149.865 46.5651L150.045 47.7767C150.271 47.365 150.581 47.0415 150.975 46.8061C151.377 46.5622 151.851 46.4452 152.397 46.4551L152.432 48.2098L151.964 48.2013C151.6 48.1947 151.276 48.2451 150.992 48.3526C150.708 48.46 150.487 48.6509 150.328 48.9252C150.177 49.1996 150.107 49.5838 150.117 50.0777L150.175 53.0152L148.511 52.985ZM156.647 53.2885C156.023 53.2772 155.457 53.124 154.949 52.8289C154.449 52.534 154.047 52.1326 153.742 51.6247C153.446 51.1083 153.292 50.5165 153.279 49.8492C153.265 49.182 153.401 48.5998 153.686 48.1026C153.97 47.5967 154.357 47.2053 154.845 46.9283C155.342 46.6515 155.902 46.5187 156.526 46.53C157.142 46.5412 157.699 46.6942 158.199 46.9891C158.707 47.2842 159.109 47.6899 159.405 48.2064C159.709 48.7143 159.868 49.3018 159.881 49.969C159.895 50.6362 159.759 51.2228 159.474 51.7287C159.198 52.2261 158.812 52.6132 158.315 52.89C157.818 53.1668 157.262 53.2997 156.647 53.2885ZM156.618 51.8458C157.051 51.8536 157.425 51.7002 157.74 51.3854C158.054 51.0619 158.204 50.5796 158.192 49.9384C158.179 49.2972 158.009 48.8134 157.682 48.4869C157.355 48.1519 156.979 47.9805 156.555 47.9728C156.113 47.9647 155.735 48.1225 155.421 48.4459C155.115 48.7609 154.969 49.2389 154.981 49.8801C154.994 50.5213 155.159 51.0094 155.478 51.3443C155.805 51.6708 156.185 51.8379 156.618 51.8458Z" fill="black"/>
<ellipse cx="28.6772" cy="39.1103" rx="15" ry="15.5" transform="rotate(9.28941 28.6772 39.1103)" fill="#EEEEEE"/>
<path d="M28.9999 45.6667C25.3179 45.6667 22.3333 42.682 22.3333 39C22.3333 35.318 25.3179 32.3334 28.9999 32.3334C32.6819 32.3334 35.6666 35.318 35.6666 39C35.6666 42.682 32.6819 45.6667 28.9999 45.6667ZM28.9999 44.3334C30.4144 44.3334 31.771 43.7715 32.7712 42.7713C33.7713 41.7711 34.3333 40.4145 34.3333 39C34.3333 37.5856 33.7713 36.229 32.7712 35.2288C31.771 34.2286 30.4144 33.6667 28.9999 33.6667C27.5854 33.6667 26.2289 34.2286 25.2287 35.2288C24.2285 36.229 23.6666 37.5856 23.6666 39C23.6666 40.4145 24.2285 41.7711 25.2287 42.7713C26.2289 43.7715 27.5854 44.3334 28.9999 44.3334ZM29.6666 39H32.3333V40.3334H28.3333V35.6667H29.6666V39Z" fill="black"/>
<defs>
<linearGradient id="paint0_linear" x1="-0.673476" y1="37.2263" x2="184.532" y2="37.2263" gradientUnits="userSpaceOnUse">
<stop stop-color="white"/>
<stop offset="1" stop-color="white"/>
</linearGradient>
</defs>
</svg>
