<svg width="236" height="80" viewBox="0 0 236 80" fill="none" xmlns="http://www.w3.org/2000/svg">
<rect width="233.684" height="75" rx="18" transform="matrix(0.999835 0.0181401 0.0197313 0.999805 0 0)" fill="url(#paint0_linear)"/>
<path d="M53.6696 35.2731L53.49 26.1749L56.8305 26.2355C57.5584 26.2487 58.1587 26.3852 58.6316 26.6449C59.113 26.8962 59.4749 27.2363 59.7172 27.6651C59.9594 28.0853 60.0855 28.551 60.0956 29.0622C60.1065 29.6167 59.9692 30.121 59.6837 30.5749C59.4068 31.0289 58.9628 31.3544 58.3516 31.5512L60.3115 35.3936L58.4008 35.3589L56.6403 31.741L55.2625 31.716L55.3333 35.3033L53.6696 35.2731ZM55.2384 30.4942L56.8111 30.5228C57.3657 30.5328 57.7703 30.4059 58.025 30.142C58.2796 29.8781 58.4026 29.5252 58.3939 29.0833C58.3853 28.65 58.2485 28.3011 57.9834 28.0364C57.727 27.7719 57.3128 27.6345 56.7409 27.6241L55.1812 27.5958L55.2384 30.4942ZM64.4709 35.625C63.821 35.6132 63.2421 35.4641 62.734 35.1777C62.226 34.8913 61.824 34.4942 61.5281 33.9865C61.2323 33.4787 61.0778 32.8956 61.0648 32.237C61.0517 31.5698 61.1786 30.9788 61.4456 30.4639C61.7213 29.9492 62.1033 29.5534 62.5916 29.2764C63.0883 28.9909 63.6747 28.8543 64.3506 28.8665C64.9831 28.878 65.5448 29.0268 66.0355 29.3129C66.5262 29.599 66.9107 29.9871 67.1889 30.4772C67.4756 30.9588 67.6247 31.4942 67.6364 32.0834C67.6382 32.1787 67.6359 32.2783 67.6293 32.3821C67.6313 32.4861 67.6291 32.5943 67.6227 32.7068L62.7225 32.6179C62.7671 33.1211 62.9481 33.5185 63.2657 33.8101C63.592 34.1019 63.9804 34.2518 64.431 34.26C64.7689 34.2661 65.0491 34.1976 65.2715 34.0544C65.5024 33.9027 65.6718 33.7065 65.7796 33.4659L67.4693 33.4966C67.3561 33.9016 67.1598 34.2705 66.8805 34.6033C66.6097 34.9275 66.2682 35.1812 65.8561 35.3643C65.4526 35.5475 64.9909 35.6344 64.4709 35.625ZM64.3772 30.2183C63.97 30.2109 63.6127 30.3213 63.3053 30.5496C62.9978 30.7693 62.8054 31.1122 62.7279 31.5786L65.9384 31.6368C65.904 31.2118 65.7414 30.871 65.4505 30.6145C65.1596 30.3581 64.8018 30.226 64.3772 30.2183ZM72.2652 35.7664C71.6066 35.7544 71.0232 35.6009 70.515 35.3059C70.0068 35.0108 69.6003 34.605 69.2956 34.0884C68.9996 33.572 68.845 32.9845 68.832 32.326C68.8191 31.6674 68.9505 31.0851 69.2263 30.5791C69.5109 30.0732 69.9016 29.6819 70.3986 29.405C70.8955 29.1282 71.4732 28.9958 72.1318 29.0077C72.955 29.0226 73.6525 29.2518 74.2243 29.6953C74.7959 30.1301 75.1671 30.7259 75.338 31.4825L73.5833 31.4507C73.4905 31.1372 73.3124 30.8914 73.049 30.7134C72.7941 30.5269 72.4934 30.4305 72.1468 30.4242C71.6875 30.4159 71.301 30.5821 70.9872 30.9229C70.6734 31.2637 70.5226 31.7417 70.5348 32.3569C70.5469 32.9721 70.7167 33.4559 71.0442 33.8083C71.3716 34.1607 71.765 34.3411 72.2242 34.3494C72.5708 34.3557 72.8681 34.2745 73.116 34.1058C73.3725 33.9372 73.5409 33.6934 73.6212 33.3743L75.376 33.4062C75.2343 34.1312 74.8863 34.7096 74.3318 35.1413C73.7772 35.5729 73.0884 35.7813 72.2652 35.7664ZM80.0328 35.9073C79.3829 35.8955 78.804 35.7464 78.2959 35.46C77.7878 35.1736 77.3859 34.7766 77.09 34.2688C76.7941 33.7611 76.6397 33.1779 76.6267 32.5194C76.6135 31.8522 76.7405 31.2611 77.0075 30.7463C77.2832 30.2315 77.6652 29.8357 78.1535 29.5587C78.6502 29.2732 79.2366 29.1366 79.9124 29.1489C80.545 29.1604 81.1067 29.3091 81.5974 29.5952C82.0881 29.8813 82.4726 30.2694 82.7508 30.7595C83.0375 31.2411 83.1866 31.7765 83.1982 32.3657C83.2001 32.4611 83.1978 32.5606 83.1911 32.6644C83.1932 32.7684 83.191 32.8767 83.1846 32.9892L78.2844 32.9002C78.3289 33.4034 78.51 33.8008 78.8276 34.0924C79.1539 34.3842 79.5423 34.5342 79.9929 34.5424C80.3308 34.5485 80.611 34.4799 80.8334 34.3367C81.0643 34.185 81.2337 33.9888 81.3415 33.7483L83.0312 33.7789C82.918 34.184 82.7217 34.5529 82.4424 34.8856C82.1716 35.2099 81.8301 35.4635 81.418 35.6466C81.0145 35.8299 80.5527 35.9168 80.0328 35.9073ZM79.9391 30.5006C79.5319 30.4932 79.1746 30.6037 78.8672 30.832C78.5597 31.0516 78.3673 31.3946 78.2898 31.8609L81.5003 31.9192C81.4659 31.4941 81.3033 31.1533 81.0124 30.8969C80.7215 30.6404 80.3637 30.5083 79.9391 30.5006ZM88.49 36.0608C88.0047 36.052 87.5783 35.9533 87.2108 35.7647C86.8433 35.5761 86.5436 35.3152 86.3118 34.9818L86.1473 35.8623L84.6655 35.8355L84.4808 26.4773L86.1446 26.5075L86.2202 30.3417C86.4226 30.0595 86.6905 29.8132 87.0242 29.6027C87.3666 29.3924 87.8107 29.2922 88.3566 29.3021C88.9632 29.3131 89.5076 29.4702 89.99 29.7735C90.4724 30.0767 90.8573 30.4865 91.1447 31.0027C91.4321 31.519 91.5822 32.1021 91.595 32.752C91.6078 33.4018 91.4807 33.9799 91.2135 34.4861C90.9461 34.9836 90.577 35.3754 90.1062 35.6613C89.6353 35.9386 89.0965 36.0718 88.49 36.0608ZM88.1103 34.5987C88.6389 34.6083 89.073 34.4386 89.4126 34.0896C89.7522 33.7406 89.9164 33.2845 89.9053 32.7213C89.8942 32.1581 89.7117 31.6914 89.3579 31.3211C89.0041 30.9509 88.563 30.761 88.0344 30.7514C87.4971 30.7417 87.0588 30.9156 86.7194 31.2733C86.3884 31.6224 86.2285 32.0786 86.2396 32.6418C86.2508 33.205 86.4289 33.6717 86.774 34.0417C87.1276 34.4033 87.5731 34.5889 88.1103 34.5987ZM95.3703 36.1856C94.8157 36.1755 94.3591 36.0806 94.0004 35.9009C93.6415 35.7125 93.3725 35.4694 93.1934 35.1716C93.0143 34.8739 92.9212 34.5474 92.9142 34.1921C92.9024 33.5942 93.1268 33.1132 93.5874 32.7491C94.048 32.385 94.7462 32.2115 95.682 32.2284L97.3197 32.2582L97.3167 32.1022C97.3079 31.6603 97.1759 31.3331 96.9205 31.1205C96.6651 30.908 96.3511 30.7984 95.9785 30.7916C95.6405 30.7855 95.3475 30.8625 95.0995 31.0225C94.8513 31.1739 94.6999 31.4051 94.6454 31.7159L93.0207 31.6864C93.0548 31.2193 93.2027 30.8149 93.4645 30.4732C93.735 30.1316 94.085 29.8737 94.5147 29.6996C94.9442 29.5169 95.4276 29.4304 95.9648 29.4401C96.8833 29.4568 97.6114 29.6995 98.149 30.1684C98.6867 30.6372 98.9638 31.2919 98.9804 32.1324L99.0586 36.0966L97.6419 36.0709L97.4654 35.0283C97.2816 35.3714 97.0186 35.6525 96.6764 35.8715C96.3429 36.0906 95.9076 36.1953 95.3703 36.1856ZM95.7216 34.8927C96.1982 34.9013 96.5634 34.752 96.8172 34.4448C97.0796 34.1378 97.241 33.7552 97.3013 33.2972L95.8845 33.2715C95.4426 33.2635 95.1279 33.3401 94.9405 33.5013C94.753 33.6538 94.6615 33.847 94.6661 34.081C94.6711 34.3323 94.7702 34.5289 94.9636 34.671C95.157 34.8131 95.4096 34.887 95.7216 34.8927ZM106.71 36.3913C106.103 36.3803 105.559 36.2232 105.077 35.9199C104.594 35.6167 104.209 35.2069 103.922 34.6907C103.635 34.1744 103.484 33.5913 103.472 32.9414C103.459 32.2916 103.586 31.7179 103.853 31.2203C104.121 30.7141 104.49 30.3224 104.961 30.0451C105.431 29.7591 105.97 29.6216 106.577 29.6326C107.062 29.6414 107.488 29.7401 107.856 29.9287C108.223 30.1173 108.523 30.3782 108.755 30.7116L108.68 26.9163L110.344 26.9465L110.528 36.3047L109.047 36.2778L108.846 35.3517C108.644 35.6339 108.372 35.8801 108.029 36.0904C107.696 36.3009 107.256 36.4012 106.71 36.3913ZM107.032 34.942C107.569 34.9517 108.004 34.782 108.335 34.4329C108.674 34.0753 108.838 33.6148 108.827 33.0516C108.816 32.4884 108.633 32.026 108.28 31.6644C107.935 31.2944 107.494 31.1045 106.956 31.0947C106.428 31.0851 105.994 31.2548 105.654 31.6038C105.314 31.9528 105.15 32.4089 105.161 32.9721C105.172 33.5353 105.355 34.0021 105.709 34.3723C106.062 34.7425 106.504 34.9324 107.032 34.942ZM115.319 36.5475C114.695 36.5362 114.129 36.383 113.621 36.088C113.121 35.793 112.719 35.3916 112.415 34.8837C112.119 34.3673 111.964 33.7755 111.951 33.1083C111.938 32.4411 112.074 31.8589 112.358 31.3616C112.643 30.8558 113.029 30.4643 113.517 30.1873C114.014 29.9105 114.575 29.7778 115.199 29.7891C115.814 29.8002 116.371 29.9533 116.871 30.2482C117.379 30.5432 117.781 30.949 118.077 31.4654C118.382 31.9733 118.541 32.5609 118.554 33.2281C118.567 33.8953 118.431 34.4818 118.147 34.9877C117.871 35.4851 117.484 35.8722 116.987 36.149C116.49 36.4259 115.934 36.5587 115.319 36.5475ZM115.291 35.1048C115.724 35.1127 116.098 34.9592 116.412 34.6444C116.726 34.321 116.877 33.8386 116.864 33.1974C116.851 32.5562 116.682 32.0724 116.355 31.746C116.028 31.4109 115.652 31.2395 115.227 31.2318C114.785 31.2238 114.407 31.3815 114.093 31.7049C113.787 32.0199 113.641 32.498 113.654 33.1392C113.666 33.7804 113.832 34.2685 114.15 34.6034C114.477 34.9298 114.857 35.0969 115.291 35.1048ZM126.338 36.7474C125.688 36.7356 125.109 36.5865 124.601 36.3002C124.093 36.0138 123.691 35.6167 123.395 35.1089C123.099 34.6012 122.945 34.018 122.932 33.3595C122.918 32.6923 123.045 32.1012 123.312 31.5864C123.588 31.0717 123.97 30.6758 124.458 30.3988C124.955 30.1133 125.541 29.9767 126.217 29.989C126.85 30.0005 127.412 30.1492 127.902 30.4353C128.393 30.7214 128.777 31.1095 129.056 31.5996C129.342 32.0812 129.491 32.6166 129.503 33.2059C129.505 33.3012 129.503 33.4007 129.496 33.5046C129.498 33.6085 129.496 33.7168 129.489 33.8293L124.589 33.7404C124.634 34.2436 124.815 34.641 125.133 34.9326C125.459 35.2243 125.847 35.3743 126.298 35.3825C126.636 35.3886 126.916 35.3201 127.138 35.1768C127.369 35.0251 127.539 34.829 127.646 34.5884L129.336 34.619C129.223 35.0241 129.027 35.393 128.747 35.7257C128.476 36.05 128.135 36.3036 127.723 36.4867C127.319 36.67 126.858 36.7569 126.338 36.7474ZM126.244 31.3407C125.837 31.3333 125.479 31.4438 125.172 31.6721C124.865 31.8917 124.672 32.2347 124.595 32.701L127.805 32.7593C127.771 32.3342 127.608 31.9935 127.317 31.737C127.026 31.4805 126.669 31.3484 126.244 31.3407ZM129.915 36.6564L132.191 33.4755L129.788 30.2097L131.569 30.242L133.252 32.5593L134.831 30.3012L136.625 30.3337L134.336 33.5144L136.752 36.7805L134.958 36.7479L133.289 34.4309L131.696 36.6887L129.915 36.6564ZM140.685 36.8518C140.009 36.8396 139.464 36.6651 139.05 36.3284C138.636 35.9918 138.421 35.4032 138.405 34.5627L138.349 31.7552L137.244 31.7352L137.217 30.3445L138.322 30.3645L138.483 28.6394L139.951 28.666L139.985 30.3947L141.727 30.4263L141.755 31.817L140.013 31.7854L140.069 34.6059C140.075 34.9178 140.144 35.1356 140.276 35.2593C140.417 35.3744 140.652 35.435 140.982 35.441L141.787 35.4556L141.815 36.8723L140.685 36.8518ZM146.253 37.1088C145.603 37.097 145.025 36.9479 144.516 36.6615C144.008 36.3751 143.606 35.978 143.311 35.4703C143.015 34.9625 142.86 34.3793 142.847 33.7208C142.834 33.0536 142.961 32.4626 143.228 31.9477C143.504 31.433 143.886 31.0371 144.374 30.7602C144.871 30.4747 145.457 30.3381 146.133 30.3503C146.766 30.3618 147.327 30.5106 147.818 30.7967C148.309 31.0827 148.693 31.4708 148.971 31.961C149.258 32.4426 149.407 32.978 149.419 33.5672C149.421 33.6625 149.418 33.7621 149.412 33.8659C149.414 33.9699 149.412 34.0781 149.405 34.1906L144.505 34.1017C144.549 34.6049 144.731 35.0023 145.048 35.2939C145.374 35.5857 145.763 35.7356 146.213 35.7438C146.551 35.7499 146.832 35.6814 147.054 35.5382C147.285 35.3864 147.454 35.1903 147.562 34.9497L149.252 34.9804C149.139 35.3854 148.942 35.7543 148.663 36.0871C148.392 36.4113 148.051 36.665 147.639 36.8481C147.235 37.0313 146.773 37.1182 146.253 37.1088ZM146.16 31.7021C145.752 31.6947 145.395 31.8051 145.088 32.0334C144.78 32.253 144.588 32.596 144.51 33.0624L147.721 33.1206C147.686 32.6956 147.524 32.3548 147.233 32.0983C146.942 31.8418 146.584 31.7098 146.16 31.7021ZM150.886 37.0369L150.759 30.5902L152.241 30.617L152.42 31.8286C152.646 31.417 152.956 31.0934 153.35 30.858C153.752 30.6141 154.226 30.4972 154.772 30.5071L154.807 32.2617L154.339 32.2532C153.975 32.2466 153.651 32.2971 153.367 32.4045C153.084 32.512 152.862 32.7028 152.703 32.9771C152.552 33.2516 152.482 33.6358 152.492 34.1297L152.55 37.0671L150.886 37.0369ZM156.789 29.6991C156.486 29.6936 156.233 29.5981 156.03 29.4125C155.836 29.2271 155.736 28.9957 155.731 28.7184C155.725 28.4412 155.816 28.2176 156.003 28.0478C156.199 27.8694 156.448 27.783 156.752 27.7885C157.055 27.794 157.304 27.8895 157.498 28.0749C157.701 28.2518 157.805 28.4789 157.81 28.7562C157.816 29.0335 157.721 29.2613 157.525 29.4396C157.338 29.6181 157.093 29.7046 156.789 29.6991ZM156.105 37.1316L155.977 30.6848L157.641 30.715L157.768 37.1618L156.105 37.1316ZM162.601 37.4054C161.977 37.394 161.411 37.2409 160.903 36.9458C160.404 36.6509 160.002 36.2495 159.697 35.7416C159.401 35.2251 159.246 34.6333 159.233 33.9661C159.22 33.2989 159.356 32.7167 159.64 32.2195C159.925 31.7136 160.311 31.3222 160.8 31.0452C161.297 30.7684 161.857 30.6356 162.481 30.6469C163.096 30.6581 163.654 30.8111 164.153 31.106C164.661 31.4011 165.064 31.8068 165.36 32.3232C165.664 32.8312 165.823 33.4187 165.836 34.0859C165.849 34.7531 165.714 35.3397 165.429 35.8456C165.153 36.3429 164.767 36.73 164.27 37.0069C163.773 37.2837 163.217 37.4165 162.601 37.4054ZM162.573 35.9626C163.006 35.9705 163.38 35.817 163.694 35.5023C164.008 35.1788 164.159 34.6965 164.146 34.0553C164.134 33.4141 163.964 32.9302 163.637 32.6038C163.31 32.2687 162.934 32.0973 162.509 32.0896C162.067 32.0816 161.689 32.2393 161.375 32.5628C161.07 32.8777 160.923 33.3558 160.936 33.997C160.949 34.6382 161.114 35.1263 161.433 35.4612C161.76 35.7876 162.14 35.9548 162.573 35.9626ZM167.387 37.3363L167.26 30.8895L168.742 30.9164L168.922 32.128C169.147 31.7163 169.457 31.3928 169.851 31.1574C170.253 30.9135 170.727 30.7965 171.273 30.8064L171.308 32.5611L170.84 32.5526C170.476 32.546 170.152 32.5964 169.868 32.7039C169.585 32.8113 169.363 33.0022 169.204 33.2765C169.054 33.551 168.983 33.9351 168.993 34.429L169.051 37.3665L167.387 37.3363ZM178.799 37.6993C178.141 37.6873 177.557 37.5338 177.049 37.2387C176.541 36.9437 176.135 36.5379 175.83 36.0213C175.534 35.5049 175.379 34.9174 175.366 34.2588C175.353 33.6003 175.485 33.018 175.761 32.512C176.045 32.0061 176.436 31.6147 176.933 31.3379C177.43 31.0611 178.007 30.9286 178.666 30.9406C179.489 30.9555 180.187 31.1847 180.759 31.6282C181.33 32.063 181.701 32.6587 181.872 33.4154L180.118 33.3836C180.025 33.0701 179.847 32.8243 179.583 32.6463C179.328 32.4597 179.028 32.3633 178.681 32.3571C178.222 32.3487 177.835 32.5149 177.521 32.8557C177.208 33.1965 177.057 33.6745 177.069 34.2897C177.081 34.9049 177.251 35.3888 177.578 35.7412C177.906 36.0936 178.299 36.274 178.758 36.2823C179.105 36.2886 179.402 36.2074 179.65 36.0386C179.907 35.87 180.075 35.6262 180.155 35.3072L181.91 35.339C181.769 36.0641 181.421 36.6424 180.866 37.0741C180.311 37.5058 179.623 37.7142 178.799 37.6993ZM186.528 37.8395C185.904 37.8282 185.338 37.675 184.83 37.3799C184.33 37.085 183.928 36.6836 183.624 36.1757C183.328 35.6592 183.173 35.0674 183.16 34.4002C183.147 33.733 183.283 33.1508 183.567 32.6536C183.852 32.1477 184.238 31.7563 184.726 31.4793C185.223 31.2025 185.784 31.0697 186.408 31.081C187.023 31.0922 187.58 31.2452 188.08 31.5401C188.588 31.8352 188.99 32.2409 189.286 32.7574C189.591 33.2653 189.75 33.8528 189.763 34.52C189.776 35.1872 189.64 35.7738 189.356 36.2797C189.08 36.777 188.693 37.1642 188.196 37.441C187.699 37.7178 187.143 37.8506 186.528 37.8395ZM186.5 36.3968C186.933 36.4046 187.307 36.2512 187.621 35.9364C187.935 35.6129 188.086 35.1306 188.073 34.4894C188.06 33.8482 187.891 33.3643 187.564 33.0379C187.237 32.7028 186.861 32.5314 186.436 32.5237C185.994 32.5157 185.616 32.6734 185.302 32.9969C184.996 33.3118 184.85 33.7899 184.863 34.4311C184.875 35.0723 185.041 35.5604 185.359 35.8953C185.686 36.2218 186.066 36.3889 186.5 36.3968ZM191.314 37.7704L191.187 31.3236L192.656 31.3503L192.816 32.2237C193.017 31.9156 193.286 31.6736 193.62 31.4977C193.963 31.3134 194.359 31.2253 194.81 31.2335C195.807 31.2515 196.52 31.65 196.952 32.4287C197.179 32.0777 197.485 31.8017 197.871 31.6008C198.265 31.4001 198.696 31.304 199.164 31.3125C200.005 31.3277 200.655 31.5907 201.116 32.1015C201.576 32.6122 201.816 33.3528 201.835 34.3233L201.907 37.9626L200.244 37.9324L200.175 34.4491C200.164 33.8945 200.047 33.468 199.825 33.1694C199.611 32.871 199.283 32.7178 198.841 32.7098C198.391 32.7017 198.03 32.8597 197.759 33.1839C197.497 33.5083 197.372 33.9651 197.383 34.5543L197.449 37.8817L195.785 37.8515L195.717 34.3682C195.706 33.8136 195.589 33.3871 195.366 33.0885C195.144 32.79 194.807 32.6366 194.357 32.6285C193.915 32.6205 193.559 32.7786 193.288 33.1028C193.026 33.4272 192.9 33.884 192.912 34.4732L192.978 37.8006L191.314 37.7704ZM206.583 38.2033C205.959 38.192 205.393 38.0388 204.885 37.7438C204.386 37.4489 203.984 37.0474 203.679 36.5395C203.383 36.0231 203.228 35.4313 203.215 34.7641C203.202 34.0969 203.338 33.5147 203.623 33.0175C203.907 32.5116 204.293 32.1201 204.782 31.8431C205.279 31.5663 205.839 31.4336 206.463 31.4449C207.078 31.4561 207.636 31.6091 208.135 31.904C208.643 32.1991 209.046 32.6048 209.342 33.1212C209.646 33.6291 209.805 34.2167 209.818 34.8839C209.831 35.5511 209.696 36.1376 209.411 36.6435C209.135 37.1409 208.749 37.528 208.252 37.8048C207.755 38.0817 207.199 38.2145 206.583 38.2033ZM206.555 36.7606C206.988 36.7685 207.362 36.615 207.676 36.3002C207.99 35.9768 208.141 35.4944 208.128 34.8532C208.116 34.212 207.946 33.7282 207.619 33.4018C207.292 33.0667 206.916 32.8953 206.491 32.8876C206.05 32.8796 205.671 33.0373 205.357 33.3608C205.052 33.6757 204.905 34.1538 204.918 34.795C204.931 35.4362 205.096 35.9243 205.415 36.2592C205.742 36.5856 206.122 36.7528 206.555 36.7606ZM53.9853 51.27L53.8057 42.1718L57.1722 42.2328C57.9001 42.246 58.5047 42.3783 58.9861 42.6295C59.4674 42.8808 59.8293 43.2209 60.0716 43.6497C60.314 44.0785 60.4404 44.5572 60.4508 45.0858C60.4607 45.5883 60.3572 46.0499 60.1403 46.4704C59.9232 46.8822 59.5789 47.2138 59.1075 47.4651C58.6358 47.7077 58.0274 47.8223 57.2822 47.8087L55.5795 47.7779L55.649 51.3002L53.9853 51.27ZM55.5528 46.4261L57.1516 46.4551C57.7321 46.4657 58.1456 46.3476 58.3919 46.1008C58.6467 45.8456 58.7698 45.497 58.7611 45.0551C58.7522 44.6045 58.6153 44.2512 58.3504 43.9952C58.0939 43.7307 57.6754 43.5932 57.0949 43.5827L55.4961 43.5537L55.5528 46.4261ZM63.3609 51.596C62.4771 51.58 61.7617 51.3201 61.2147 50.8165C60.6762 50.3043 60.3979 49.589 60.3797 48.6705L62.0435 48.7007C62.0605 49.1254 62.1668 49.4652 62.3624 49.7199C62.558 49.9747 62.8681 50.1059 63.2927 50.1136C63.6913 50.1208 63.9793 50.0091 64.1566 49.7785C64.3338 49.5391 64.4186 49.2245 64.4109 48.8346L64.2831 42.3618L65.9468 42.392L66.0746 48.8648C66.0922 49.7573 65.8545 50.4416 65.3615 50.9177C64.877 51.3853 64.2101 51.6114 63.3609 51.596ZM73.9218 51.7876C73.3152 51.7766 72.7707 51.6195 72.2883 51.3162C71.8059 51.013 71.4211 50.6032 71.1337 50.0869C70.8463 49.5707 70.6962 48.9876 70.6834 48.3377C70.6705 47.6879 70.7978 47.1141 71.0652 46.6166C71.3324 46.1104 71.7015 45.7187 72.1724 45.4414C72.6432 45.1554 73.1818 45.0179 73.7884 45.0289C74.2737 45.0377 74.7001 45.1364 75.0676 45.325C75.4351 45.5135 75.7348 45.7745 75.9666 46.1079L75.8917 42.3126L77.5554 42.3428L77.7401 51.701L76.2583 51.6741L76.0582 50.748C75.8558 51.0301 75.5835 51.2764 75.2412 51.4867C74.9075 51.6972 74.4677 51.7975 73.9218 51.7876ZM74.244 50.3383C74.7813 50.348 75.2153 50.1783 75.5463 49.8292C75.8857 49.4715 76.0499 49.0111 76.0387 48.4479C76.0276 47.8847 75.8453 47.4223 75.4916 47.0607C75.1465 46.6907 74.7053 46.5008 74.1681 46.491C73.6395 46.4814 73.2054 46.6511 72.8658 47.0001C72.5262 47.3491 72.362 47.8052 72.3731 48.3684C72.3842 48.9316 72.5667 49.3983 72.9205 49.7685C73.2742 50.1388 73.7154 50.3287 74.244 50.3383ZM82.5698 51.9445C81.92 51.9327 81.341 51.7836 80.8329 51.4972C80.3249 51.2108 79.9229 50.8138 79.627 50.306C79.3312 49.7982 79.1767 49.2151 79.1637 48.5566C79.1506 47.8893 79.2775 47.2983 79.5445 46.7834C79.8202 46.2687 80.2022 45.8729 80.6905 45.5959C81.1872 45.3104 81.7736 45.1738 82.4495 45.1861C83.082 45.1975 83.6437 45.3463 84.1344 45.6324C84.6251 45.9185 85.0096 46.3066 85.2878 46.7967C85.5745 47.2783 85.7236 47.8137 85.7353 48.4029C85.7371 48.4982 85.7348 48.5978 85.7282 48.7016C85.7302 48.8056 85.728 48.9138 85.7216 49.0263L80.8214 48.9374C80.866 49.4406 81.047 49.838 81.3646 50.1296C81.6909 50.4214 82.0793 50.5714 82.5299 50.5795C82.8679 50.5857 83.148 50.5171 83.3704 50.3739C83.6013 50.2222 83.7707 50.026 83.8785 49.7855L85.5683 49.8161C85.455 50.2212 85.2587 50.5901 84.9794 50.9228C84.7086 51.2471 84.3671 51.5007 83.955 51.6838C83.5515 51.867 83.0898 51.9539 82.5698 51.9445ZM82.4761 46.5378C82.0689 46.5304 81.7116 46.6409 81.4042 46.8692C81.0967 47.0888 80.9043 47.4318 80.8269 47.8981L84.0373 47.9564C84.003 47.5313 83.8403 47.1905 83.5494 46.9341C83.2585 46.6776 82.9007 46.5455 82.4761 46.5378ZM90.5986 51.9343L90.4989 46.8782L89.615 46.8622L89.5876 45.4715L90.4714 45.4875L90.4565 44.7337C90.4411 43.9538 90.6252 43.4028 91.0086 43.0806C91.4007 42.7586 91.9347 42.6037 92.6106 42.6159L93.3255 42.6289L93.3534 44.0456L92.8985 44.0374C92.6125 44.0322 92.41 44.0848 92.2909 44.1953C92.1718 44.3057 92.115 44.4952 92.1203 44.7638L92.1351 45.5177L93.5259 45.5429L93.5533 46.9337L92.1626 46.9084L92.2624 51.9644L90.5986 51.9343ZM97.8135 52.2211C97.1896 52.2098 96.6235 52.0566 96.1153 51.7615C95.6157 51.4666 95.2137 51.0652 94.9092 50.5573C94.6131 50.0409 94.4585 49.449 94.4453 48.7818C94.4322 48.1146 94.5679 47.5324 94.8526 47.0352C95.1372 46.5293 95.5236 46.1379 96.0118 45.8609C96.5088 45.5841 97.0692 45.4513 97.6931 45.4626C98.3083 45.4738 98.8657 45.6268 99.3653 45.9217C99.8735 46.2168 100.276 46.6225 100.572 47.139C100.876 47.6469 101.035 48.2344 101.048 48.9016C101.061 49.5688 100.926 50.1554 100.641 50.6613C100.365 51.1587 99.9787 51.5458 99.4818 51.8226C98.9848 52.0994 98.4287 52.2322 97.8135 52.2211ZM97.785 50.7784C98.2183 50.7862 98.5921 50.6328 98.9063 50.318C99.2205 49.9945 99.3712 49.5122 99.3585 48.871C99.3459 48.2298 99.1761 47.746 98.8491 47.4195C98.522 47.0844 98.1462 46.9131 97.7216 46.9053C97.2797 46.8973 96.9016 47.055 96.5875 47.3785C96.2819 47.6934 96.1354 48.1715 96.1481 48.8127C96.1607 49.4539 96.3263 49.942 96.6447 50.2769C96.9717 50.6034 97.3518 50.7705 97.785 50.7784ZM102.599 52.152L102.472 45.7052L103.954 45.7321L104.134 46.9437C104.36 46.5321 104.669 46.2085 105.063 45.9731C105.465 45.7292 105.94 45.6122 106.485 45.6221L106.52 47.3768L106.052 47.3683C105.688 47.3617 105.364 47.4121 105.081 47.5196C104.797 47.6271 104.575 47.8179 104.416 48.0922C104.266 48.3667 104.195 48.7508 104.205 49.2448L104.263 52.1822L102.599 52.152ZM107.753 52.2455L107.626 45.7987L109.094 45.8254L109.255 46.6988C109.456 46.3907 109.724 46.1487 110.059 45.9728C110.402 45.7885 110.798 45.7004 111.249 45.7086C112.245 45.7267 112.959 46.1251 113.39 46.9038C113.617 46.5528 113.924 46.2768 114.31 46.0759C114.704 45.8752 115.135 45.7791 115.603 45.7876C116.444 45.8028 117.094 46.0658 117.555 46.5766C118.015 47.0873 118.255 47.8279 118.274 48.7984L118.346 52.4377L116.682 52.4075L116.614 48.9242C116.603 48.3696 116.486 47.9431 116.264 47.6445C116.05 47.3462 115.722 47.193 115.28 47.1849C114.829 47.1768 114.469 47.3348 114.198 47.659C113.936 47.9834 113.811 48.4402 113.822 49.0294L113.888 52.3568L112.224 52.3266L112.155 48.8433C112.144 48.2887 112.028 47.8622 111.805 47.5636C111.583 47.2651 111.246 47.1117 110.796 47.1036C110.354 47.0956 109.997 47.2537 109.727 47.5779C109.465 47.9023 109.339 48.3591 109.351 48.9483L109.417 52.2757L107.753 52.2455ZM122.151 52.6626C121.597 52.6526 121.14 52.5577 120.781 52.3779C120.423 52.1895 120.154 51.9464 119.974 51.6487C119.795 51.3509 119.702 51.0244 119.695 50.6692C119.684 50.0713 119.908 49.5903 120.368 49.2262C120.829 48.8621 121.527 48.6885 122.463 48.7055L124.101 48.7352L124.098 48.5792C124.089 48.1373 123.957 47.8101 123.702 47.5976C123.446 47.3851 123.132 47.2754 122.76 47.2687C122.422 47.2625 122.129 47.3395 121.881 47.4996C121.632 47.651 121.481 47.8821 121.427 48.193L119.802 48.1635C119.836 47.6964 119.984 47.2919 120.246 46.9502C120.516 46.6086 120.866 46.3508 121.296 46.1767C121.725 45.9939 122.209 45.9074 122.746 45.9172C123.664 45.9338 124.392 46.1766 124.93 46.6454C125.468 47.1142 125.745 47.7689 125.761 48.6094L125.84 52.5736L124.423 52.5479L124.246 51.5053C124.063 51.8485 123.8 52.1295 123.457 52.3485C123.124 52.5677 122.689 52.6724 122.151 52.6626ZM122.503 51.3697C122.979 51.3784 123.344 51.2291 123.598 50.9219C123.861 50.6148 124.022 50.2323 124.082 49.7743L122.666 49.7486C122.224 49.7406 121.909 49.8171 121.722 49.9783C121.534 50.1308 121.443 50.3241 121.447 50.558C121.452 50.8093 121.551 51.006 121.745 51.1481C121.938 51.2902 122.191 51.3641 122.503 51.3697ZM130.823 52.6641L130.724 47.608L129.84 47.592L129.812 46.2013L130.696 46.2173L130.681 45.4635C130.666 44.6836 130.85 44.1326 131.233 43.8104C131.626 43.4884 132.16 43.3335 132.835 43.3457L133.55 43.3587L133.578 44.7754L133.123 44.7672C132.837 44.762 132.635 44.8146 132.516 44.9251C132.397 45.0355 132.34 45.225 132.345 45.4937L132.36 46.2475L133.751 46.2727L133.778 47.6635L132.387 47.6382L132.487 52.6942L130.823 52.6641ZM137.167 52.9351C136.613 52.925 136.156 52.8301 135.798 52.6504C135.439 52.462 135.17 52.2189 134.991 51.9211C134.811 51.6234 134.718 51.2969 134.711 50.9416C134.7 50.3437 134.924 49.8627 135.385 49.4986C135.845 49.1345 136.543 48.9609 137.479 48.9779L139.117 49.0076L139.114 48.8517C139.105 48.4098 138.973 48.0825 138.718 47.87C138.462 47.6575 138.148 47.5479 137.776 47.5411C137.438 47.535 137.145 47.6119 136.897 47.772C136.648 47.9234 136.497 48.1546 136.443 48.4654L134.818 48.4359C134.852 47.9688 135 47.5644 135.262 47.2226C135.532 46.8811 135.882 46.6232 136.312 46.4491C136.741 46.2664 137.225 46.1799 137.762 46.1896C138.68 46.2063 139.409 46.449 139.946 46.9178C140.484 47.3867 140.761 48.0413 140.778 48.8819L140.856 52.8461L139.439 52.8204L139.263 51.7777C139.079 52.1209 138.816 52.402 138.474 52.621C138.14 52.8401 137.705 52.9448 137.167 52.9351ZM137.519 51.6422C137.995 51.6508 138.361 51.5015 138.614 51.1943C138.877 50.8872 139.038 50.5047 139.098 50.0467L137.682 50.021C137.24 50.013 136.925 50.0896 136.738 50.2508C136.55 50.4033 136.459 50.5965 136.463 50.8305C136.468 51.0817 136.567 51.2784 136.761 51.4205C136.954 51.5626 137.207 51.6365 137.519 51.6422ZM137.287 45.8172L137.264 44.6474L140.17 43.115L140.197 44.4667L137.287 45.8172ZM145.605 53.0882C144.946 53.0762 144.363 52.9227 143.855 52.6276C143.347 52.3326 142.94 51.9268 142.635 51.4102C142.339 50.8938 142.185 50.3063 142.172 49.6477C142.159 48.9892 142.29 48.4069 142.566 47.9009C142.851 47.395 143.241 47.0036 143.738 46.7268C144.235 46.45 144.813 46.3175 145.472 46.3295C146.295 46.3444 146.992 46.5736 147.564 47.0171C148.136 47.4519 148.507 48.0476 148.678 48.8043L146.923 48.7725C146.83 48.459 146.652 48.2132 146.389 48.0352C146.134 47.8487 145.833 47.7523 145.487 47.746C145.027 47.7376 144.641 47.9039 144.327 48.2446C144.013 48.5854 143.862 49.0634 143.875 49.6786C143.887 50.2938 144.057 50.7777 144.384 51.1301C144.711 51.4825 145.105 51.6629 145.564 51.6712C145.911 51.6775 146.208 51.5963 146.456 51.4275C146.712 51.2589 146.881 51.0151 146.961 50.6961L148.716 50.7279C148.574 51.453 148.226 52.0313 147.672 52.463C147.117 52.8947 146.428 53.1031 145.605 53.0882ZM150.987 45.585C150.684 45.5795 150.431 45.484 150.228 45.2984C150.033 45.113 149.934 44.8816 149.928 44.6043C149.923 44.3271 150.014 44.1035 150.201 43.9336C150.396 43.7553 150.646 43.6689 150.949 43.6744C151.253 43.6799 151.501 43.7753 151.696 43.9608C151.898 44.1377 152.002 44.3648 152.008 44.6421C152.013 44.9193 151.918 45.1472 151.722 45.3255C151.535 45.504 151.29 45.5905 150.987 45.585ZM150.302 53.0175L150.175 46.5707L151.839 46.6009L151.966 53.0477L150.302 53.0175ZM153.702 53.0792L153.518 43.721L155.181 43.7512L155.366 53.1093L153.702 53.0792ZM163.299 53.4092C162.649 53.3974 162.07 53.2483 161.562 52.9619C161.054 52.6755 160.652 52.2784 160.356 51.7707C160.06 51.2629 159.906 50.6798 159.893 50.0212C159.879 49.354 160.006 48.763 160.273 48.2481C160.549 47.7334 160.931 47.3376 161.419 47.0606C161.916 46.7751 162.502 46.6385 163.178 46.6507C163.811 46.6622 164.373 46.811 164.863 47.0971C165.354 47.3832 165.738 47.7713 166.017 48.2614C166.303 48.743 166.453 49.2784 166.464 49.8676C166.466 49.9629 166.464 50.0625 166.457 50.1663C166.459 50.2703 166.457 50.3785 166.45 50.491L161.55 50.4021C161.595 50.9053 161.776 51.3027 162.094 51.5943C162.42 51.8861 162.808 52.036 163.259 52.0442C163.597 52.0503 163.877 51.9818 164.099 51.8386C164.33 51.6869 164.5 51.4907 164.607 51.2501L166.297 51.2808C166.184 51.6858 165.988 52.0547 165.708 52.3875C165.438 52.7117 165.096 52.9654 164.684 53.1485C164.28 53.3317 163.819 53.4186 163.299 53.4092ZM163.205 48.0025C162.798 47.9951 162.44 48.1055 162.133 48.3338C161.826 48.5535 161.633 48.8964 161.556 49.3628L164.766 49.421C164.732 48.996 164.569 48.6552 164.278 48.3987C163.987 48.1423 163.63 48.0102 163.205 48.0025ZM171.029 53.3935L170.901 46.9468L172.383 46.9736L172.563 48.1852C172.789 47.7736 173.098 47.45 173.492 47.2146C173.895 46.9708 174.369 46.8538 174.915 46.8637L174.949 48.6183L174.481 48.6098C174.117 48.6032 173.794 48.6537 173.51 48.7611C173.226 48.8686 173.005 49.0594 172.845 49.3337C172.695 49.6082 172.625 49.9924 172.634 50.4863L172.692 53.4237L171.029 53.3935ZM178.408 53.6833C177.853 53.6732 177.397 53.5783 177.038 53.3986C176.679 53.2102 176.41 52.9671 176.231 52.6693C176.052 52.3716 175.959 52.0451 175.952 51.6898C175.94 51.0919 176.164 50.6109 176.625 50.2468C177.085 49.8827 177.784 49.7092 178.719 49.7261L180.357 49.7559L180.354 49.5999C180.345 49.158 180.213 48.8308 179.958 48.6182C179.703 48.4057 179.389 48.2961 179.016 48.2893C178.678 48.2832 178.385 48.3602 178.137 48.5202C177.889 48.6717 177.737 48.9028 177.683 49.2136L176.058 49.1841C176.092 48.717 176.24 48.3126 176.502 47.9709C176.772 47.6293 177.122 47.3715 177.552 47.1974C177.982 47.0146 178.465 46.9281 179.002 46.9378C179.921 46.9545 180.649 47.1972 181.186 47.6661C181.724 48.1349 182.001 48.7896 182.018 49.6301L182.096 53.5943L180.679 53.5686L180.503 52.526C180.319 52.8691 180.056 53.1502 179.714 53.3692C179.38 53.5883 178.945 53.693 178.408 53.6833ZM178.759 52.3904C179.236 52.399 179.601 52.2498 179.855 51.9425C180.117 51.6355 180.278 51.2529 180.339 50.795L178.922 50.7692C178.48 50.7612 178.165 50.8378 177.978 50.999C177.79 51.1515 177.699 51.3447 177.704 51.5787C177.709 51.83 177.808 52.0267 178.001 52.1688C178.194 52.3109 178.447 52.3847 178.759 52.3904ZM178.527 46.5654L178.504 45.3956L181.41 43.8632L181.437 45.215L178.527 46.5654ZM183.74 56.4826L183.557 47.1764L185.038 47.2032L185.238 48.1294C185.441 47.8472 185.709 47.6009 186.042 47.3904C186.385 47.18 186.829 47.0798 187.375 47.0897C187.981 47.1007 188.526 47.2579 189.008 47.5611C189.491 47.8644 189.876 48.2741 190.163 48.7904C190.45 49.3067 190.6 49.8897 190.613 50.5396C190.626 51.1895 190.499 51.7675 190.232 52.2737C189.964 52.7713 189.595 53.163 189.124 53.449C188.654 53.7263 188.115 53.8594 187.508 53.8484C187.023 53.8396 186.597 53.7409 186.229 53.5524C185.861 53.3638 185.562 53.1028 185.33 52.7695L185.404 56.5127L183.74 56.4826ZM187.129 52.3863C187.657 52.3959 188.091 52.2262 188.431 51.8773C188.77 51.5283 188.935 51.0722 188.924 50.509C188.912 49.9457 188.73 49.479 188.376 49.1088C188.022 48.7386 187.581 48.5487 187.053 48.5391C186.515 48.5293 186.077 48.7033 185.738 49.0609C185.407 49.4101 185.247 49.8662 185.258 50.4295C185.269 50.9927 185.447 51.4593 185.792 51.8294C186.146 52.1909 186.591 52.3766 187.129 52.3863ZM192.913 46.3457C192.609 46.3402 192.356 46.2446 192.153 46.059C191.959 45.8736 191.859 45.6423 191.854 45.365C191.848 45.0877 191.939 44.8642 192.126 44.6943C192.322 44.516 192.572 44.4295 192.875 44.435C193.178 44.4405 193.427 44.536 193.621 44.7214C193.824 44.8983 193.928 45.1254 193.934 45.4027C193.939 45.68 193.844 45.9078 193.648 46.0862C193.461 46.2647 193.216 46.3512 192.913 46.3457ZM192.228 53.7781L192.101 47.3314L193.764 47.3616L193.892 53.8083L192.228 53.7781ZM198.595 54.0496C197.988 54.0385 197.444 53.8814 196.961 53.5782C196.479 53.2749 196.094 52.8651 195.807 52.3489C195.519 51.8326 195.369 51.2495 195.356 50.5997C195.343 49.9498 195.471 49.3761 195.738 48.8786C196.005 48.3724 196.374 47.9806 196.845 47.7033C197.316 47.4173 197.855 47.2799 198.461 47.2909C198.947 47.2997 199.373 47.3984 199.74 47.5869C200.108 47.7755 200.408 48.0365 200.639 48.3698L200.565 44.5746L202.228 44.6047L202.413 53.9629L200.931 53.936L200.731 53.0099C200.529 53.2921 200.256 53.5383 199.914 53.7487C199.58 53.9592 199.141 54.0595 198.595 54.0496ZM198.917 52.6002C199.454 52.61 199.888 52.4403 200.219 52.0911C200.559 51.7335 200.723 51.2731 200.712 50.7098C200.7 50.1466 200.518 49.6842 200.164 49.3227C199.819 48.9526 199.378 48.7627 198.841 48.753C198.312 48.7434 197.878 48.9131 197.539 49.262C197.199 49.611 197.035 50.0671 197.046 50.6303C197.057 51.1936 197.24 51.6603 197.593 52.0305C197.947 52.4007 198.388 52.5906 198.917 52.6002ZM206.333 54.1899C205.778 54.1799 205.322 54.085 204.963 53.9052C204.604 53.7168 204.335 53.4737 204.156 53.176C203.977 52.8782 203.884 52.5517 203.877 52.1965C203.865 51.5986 204.089 51.1176 204.55 50.7535C205.01 50.3894 205.709 50.2158 206.645 50.2328L208.282 50.2625L208.279 50.1065C208.27 49.6646 208.138 49.3374 207.883 49.1249C207.628 48.9124 207.314 48.8027 206.941 48.796C206.603 48.7898 206.31 48.8668 206.062 49.0269C205.814 49.1783 205.662 49.4094 205.608 49.7203L203.983 49.6908C204.017 49.2237 204.165 48.8192 204.427 48.4775C204.697 48.1359 205.048 47.8781 205.477 47.704C205.907 47.5212 206.39 47.4347 206.927 47.4445C207.846 47.4611 208.574 47.7039 209.112 48.1727C209.649 48.6416 209.926 49.2962 209.943 50.1367L210.021 54.101L208.604 54.0752L208.428 53.0326C208.244 53.3758 207.981 53.6568 207.639 53.8758C207.305 54.095 206.87 54.1997 206.333 54.1899ZM206.684 52.897C207.161 52.9057 207.526 52.7564 207.78 52.4492C208.042 52.1421 208.204 51.7596 208.264 51.3016L206.847 51.2759C206.405 51.2679 206.09 51.3445 205.903 51.5056C205.716 51.6581 205.624 51.8514 205.629 52.0853C205.634 52.3366 205.733 52.5333 205.926 52.6754C206.12 52.8175 206.372 52.8914 206.684 52.897Z" fill="black"/>
<ellipse cx="28.6772" cy="39.1103" rx="15" ry="15.5" transform="rotate(9.28941 28.6772 39.1103)" fill="#FFE794"/>
<g clip-path="url(#clip0)">
<path d="M26.6043 44.2109L30.9242 43.9768C30.569 44.9749 29.8351 45.7929 28.8812 46.2538C27.8832 45.8987 27.0652 45.1647 26.6043 44.2109ZM32.2913 40.6892L33.6007 42.0212L33.6651 43.2098L23.7966 43.7444L23.7322 42.5558L24.89 41.0902L24.696 37.5098C24.5796 35.3615 26.025 33.4497 28.1446 32.6557C30.3375 33.2161 31.981 34.9605 32.0974 37.1088L32.2913 40.6892ZM28.4635 38.5428C28.7907 38.5251 29.0974 38.3781 29.3162 38.1343C29.535 37.8904 29.648 37.5696 29.6302 37.2424C29.6125 36.9153 29.4656 36.6086 29.2217 36.3898C28.9778 36.171 28.657 36.058 28.3299 36.0757C28.0027 36.0934 27.696 36.2404 27.4772 36.4843C27.2584 36.7281 27.1454 37.0489 27.1631 37.3761C27.1808 37.7033 27.3278 38.01 27.5717 38.2288C27.8155 38.4476 28.1363 38.5606 28.4635 38.5428Z" fill="black"/>
</g>
<defs>
<linearGradient id="paint0_linear" x1="-0.852859" y1="37.2263" x2="233.684" y2="37.2263" gradientUnits="userSpaceOnUse">
<stop stop-color="#F1E369"/>
<stop offset="1" stop-color="#FFA944"/>
</linearGradient>
<clipPath id="clip0">
<rect width="14.8244" height="14.8244" fill="white" transform="translate(20.6946 32.1592) rotate(-3.10095)"/>
</clipPath>
</defs>
</svg>
