<svg width="169" height="39" viewBox="0 0 169 39" fill="none" xmlns="http://www.w3.org/2000/svg">
<path d="M48.2068 27.2879V10.0965H58.669V11.7911H50.2697V17.8326H57.4164V19.5027H50.2697V27.2879H48.2068Z" fill="white"/>
<path d="M66.2257 27.5826C65.0796 27.5826 64.0481 27.3206 63.1312 26.7967C62.2143 26.2728 61.4858 25.536 60.9455 24.5864C60.4215 23.6204 60.1596 22.4907 60.1596 21.1972C60.1596 19.9038 60.4297 18.7823 60.97 17.8326C61.5103 16.8666 62.2389 16.1217 63.1558 15.5978C64.089 15.0738 65.1287 14.8119 66.2748 14.8119C67.4209 14.8119 68.4524 15.0738 69.3692 15.5978C70.2861 16.1217 71.0065 16.8666 71.5304 17.8326C72.0707 18.7823 72.3409 19.9038 72.3409 21.1972C72.3409 22.4907 72.0707 23.6204 71.5304 24.5864C70.9901 25.536 70.2534 26.2728 69.3201 26.7967C68.4032 27.3206 67.3718 27.5826 66.2257 27.5826ZM66.2257 25.8143C66.9297 25.8143 67.5846 25.6424 68.1904 25.2986C68.7962 24.9548 69.2874 24.439 69.6639 23.7514C70.0405 23.0637 70.2288 22.2123 70.2288 21.1972C70.2288 20.1821 70.0405 19.3307 69.6639 18.6431C69.3037 17.9554 68.8207 17.4397 68.2149 17.0959C67.6092 16.752 66.9624 16.5801 66.2748 16.5801C65.5708 16.5801 64.9158 16.752 64.3101 17.0959C63.7043 17.4397 63.2131 17.9554 62.8365 18.6431C62.4599 19.3307 62.2717 20.1821 62.2717 21.1972C62.2717 22.2123 62.4599 23.0637 62.8365 23.7514C63.2131 24.439 63.6961 24.9548 64.2855 25.2986C64.8913 25.6424 65.538 25.8143 66.2257 25.8143Z" fill="white"/>
<path d="M79.5432 27.2879C78.4299 27.2879 77.5539 27.0177 76.9154 26.4774C76.2768 25.9371 75.9576 24.963 75.9576 23.5549V16.8503H73.8455V15.1066H75.9576L76.2277 12.184H78.0205V15.1066H81.6062V16.8503H78.0205V23.5549C78.0205 24.3244 78.1761 24.8483 78.4872 25.1267C78.7982 25.3886 79.3467 25.5196 80.1326 25.5196H81.4097V27.2879H79.5432Z" fill="white"/>
<path d="M89.4417 27.5826C88.2956 27.5826 87.2641 27.3206 86.3472 26.7967C85.4304 26.2728 84.7018 25.536 84.1615 24.5864C83.6375 23.6204 83.3756 22.4907 83.3756 21.1972C83.3756 19.9038 83.6457 18.7823 84.186 17.8326C84.7263 16.8666 85.4549 16.1217 86.3718 15.5978C87.305 15.0738 88.3447 14.8119 89.4908 14.8119C90.6369 14.8119 91.6684 15.0738 92.5852 15.5978C93.5021 16.1217 94.2225 16.8666 94.7464 17.8326C95.2867 18.7823 95.5569 19.9038 95.5569 21.1972C95.5569 22.4907 95.2867 23.6204 94.7464 24.5864C94.2061 25.536 93.4694 26.2728 92.5361 26.7967C91.6192 27.3206 90.5878 27.5826 89.4417 27.5826ZM89.4417 25.8143C90.1457 25.8143 90.8006 25.6424 91.4064 25.2986C92.0122 24.9548 92.5034 24.439 92.8799 23.7514C93.2565 23.0637 93.4448 22.2123 93.4448 21.1972C93.4448 20.1821 93.2565 19.3307 92.8799 18.6431C92.5197 17.9554 92.0367 17.4397 91.431 17.0959C90.8252 16.752 90.1784 16.5801 89.4908 16.5801C88.7868 16.5801 88.1318 16.752 87.5261 17.0959C86.9203 17.4397 86.4291 17.9554 86.0525 18.6431C85.6759 19.3307 85.4877 20.1821 85.4877 21.1972C85.4877 22.2123 85.6759 23.0637 86.0525 23.7514C86.4291 24.439 86.9121 24.9548 87.5015 25.2986C88.1073 25.6424 88.754 25.8143 89.4417 25.8143Z" fill="white"/>
<path d="M98.4253 27.2879V15.1066H100.292L100.415 17.2923C100.808 16.5228 101.372 15.917 102.109 15.475C102.846 15.0329 103.681 14.8119 104.614 14.8119C106.055 14.8119 107.201 15.2539 108.052 16.1381C108.92 17.0058 109.354 18.3484 109.354 20.1657V27.2879H107.291V20.3868C107.291 17.849 106.243 16.5801 104.148 16.5801C103.1 16.5801 102.224 16.9649 101.52 17.7344C100.832 18.4875 100.488 19.5681 100.488 20.9762V27.2879H98.4253Z" fill="white"/>
<path d="M112.455 27.2879V10.0965H119.356C121.141 10.0965 122.5 10.514 123.433 11.349C124.383 12.1677 124.857 13.2237 124.857 14.5172C124.857 15.5978 124.563 16.4655 123.973 17.1204C123.4 17.759 122.696 18.1928 121.861 18.4221C122.844 18.6185 123.654 19.1097 124.293 19.8956C124.931 20.6651 125.25 21.5656 125.25 22.5971C125.25 23.956 124.759 25.0776 123.777 25.9617C122.794 26.8458 121.403 27.2879 119.602 27.2879H112.455ZM115.599 17.3169H118.89C119.774 17.3169 120.453 17.1122 120.928 16.7029C121.403 16.2936 121.64 15.7124 121.64 14.9592C121.64 14.2388 121.403 13.674 120.928 13.2646C120.469 12.839 119.774 12.6261 118.84 12.6261H115.599V17.3169ZM115.599 24.7337H119.111C120.044 24.7337 120.764 24.5209 121.272 24.0952C121.796 23.6531 122.058 23.0392 122.058 22.2533C122.058 21.451 121.788 20.8207 121.247 20.3622C120.707 19.9038 119.978 19.6746 119.061 19.6746H115.599V24.7337Z" fill="white"/>
<path d="M132.074 27.5826C131.026 27.5826 130.167 27.4189 129.496 27.0914C128.824 26.7476 128.325 26.2973 127.997 25.7407C127.67 25.184 127.506 24.57 127.506 23.8987C127.506 22.769 127.948 21.8521 128.833 21.1481C129.717 20.4441 131.043 20.0921 132.811 20.0921H135.906V19.7974C135.906 18.9624 135.668 18.3484 135.193 17.9554C134.718 17.5625 134.129 17.366 133.425 17.366C132.787 17.366 132.23 17.5216 131.755 17.8326C131.28 18.1273 130.986 18.5694 130.871 19.1588H127.801C127.883 18.2747 128.178 17.5052 128.685 16.8503C129.209 16.1954 129.88 15.696 130.699 15.3522C131.518 14.992 132.434 14.8119 133.45 14.8119C135.185 14.8119 136.552 15.2457 137.551 16.1135C138.55 16.9813 139.049 18.2092 139.049 19.7974V27.2879H136.372L136.077 25.3232C135.717 25.9781 135.21 26.5184 134.555 26.9441C133.916 27.3697 133.089 27.5826 132.074 27.5826ZM132.787 25.1267C133.687 25.1267 134.383 24.832 134.874 24.2426C135.382 23.6531 135.701 22.9246 135.832 22.0568H133.155C132.32 22.0568 131.722 22.2123 131.362 22.5234C131.002 22.8181 130.822 23.1865 130.822 23.6286C130.822 24.1034 131.002 24.4718 131.362 24.7337C131.722 24.9957 132.197 25.1267 132.787 25.1267Z" fill="white"/>
<path d="M142.049 27.2879V15.1066H144.824L145.07 17.1695C145.446 16.4491 145.987 15.8761 146.691 15.4504C147.411 15.0247 148.254 14.8119 149.22 14.8119C150.726 14.8119 151.897 15.2867 152.732 16.2363C153.567 17.1859 153.985 18.5776 153.985 20.4113V27.2879H150.841V20.706C150.841 19.6582 150.628 18.8559 150.203 18.2993C149.777 17.7426 149.114 17.4643 148.213 17.4643C147.329 17.4643 146.601 17.7753 146.027 18.3975C145.471 19.0197 145.192 19.8874 145.192 21.0008V27.2879H142.049Z" fill="white"/>
<path d="M156.991 27.2879V9.60535H160.134V20.043L164.457 15.1066H168.19L163.204 20.6569L169 27.2879H165.071L160.134 21.1727V27.2879H156.991Z" fill="white"/>
<rect width="38.203" height="38.203" rx="8" fill="url(#paint0_linear)"/>
<g clip-path="url(#clip0)">
<path fill-rule="evenodd" clip-rule="evenodd" d="M10.8005 24.8314L12.7916 26.7428L18.7613 21.0121L24.7292 26.7428L26.7202 24.8314L20.7506 19.1008L18.7613 17.1912L16.7702 19.1008L10.8005 24.8314Z" fill="url(#paint1_linear)"/>
<path fill-rule="evenodd" clip-rule="evenodd" d="M6.82202 21.0121L8.81132 22.9218L18.7613 13.3719L28.7096 22.9218L30.6989 21.0121L20.7506 11.4605L18.7613 9.5509L16.7703 11.4605L6.82202 21.0121Z" fill="url(#paint2_linear)"/>
<path fill-rule="evenodd" clip-rule="evenodd" d="M18.7614 24.8314L22.74 28.6524H14.781L18.7614 24.8314Z" fill="url(#paint3_linear)"/>
</g>
<defs>
<linearGradient id="paint0_linear" x1="19.1015" y1="0" x2="19.1015" y2="38.203" gradientUnits="userSpaceOnUse">
<stop stop-color="#343437"/>
<stop offset="0.0520833" stop-color="#464649"/>
<stop offset="1" stop-color="#141416"/>
</linearGradient>
<linearGradient id="paint1_linear" x1="18.7604" y1="17.1912" x2="18.7604" y2="26.7428" gradientUnits="userSpaceOnUse">
<stop stop-color="#DEA30A"/>
<stop offset="1" stop-color="#FFD770"/>
</linearGradient>
<linearGradient id="paint2_linear" x1="18.7605" y1="9.5509" x2="18.7605" y2="22.9218" gradientUnits="userSpaceOnUse">
<stop stop-color="#DEA30A"/>
<stop offset="1" stop-color="#FFD770"/>
</linearGradient>
<linearGradient id="paint3_linear" x1="18.7605" y1="24.8314" x2="18.7605" y2="28.6524" gradientUnits="userSpaceOnUse">
<stop stop-color="#DEA30A"/>
<stop offset="1" stop-color="#FFD770"/>
</linearGradient>
<clipPath id="clip0">
<rect width="23.8769" height="19.1015" fill="white" transform="translate(6.82202 9.5509)"/>
</clipPath>
</defs>
</svg>
