<svg width="178" height="27" viewBox="0 0 178 27" fill="none" xmlns="http://www.w3.org/2000/svg">
<path d="M0 26.0001V0.800077H15.336V3.28408H3.024V12.1401H13.5V14.5881H3.024V26.0001H0Z" fill="white"/>
<path d="M26.413 26.4321C24.733 26.4321 23.221 26.0481 21.877 25.2801C20.533 24.5121 19.465 23.4321 18.673 22.0401C17.905 20.6241 17.521 18.9681 17.521 17.0721C17.521 15.1761 17.917 13.5321 18.709 12.1401C19.501 10.7241 20.569 9.63208 21.913 8.86408C23.281 8.09608 24.805 7.71208 26.485 7.71208C28.165 7.71208 29.677 8.09608 31.021 8.86408C32.365 9.63208 33.421 10.7241 34.189 12.1401C34.981 13.5321 35.377 15.1761 35.377 17.0721C35.377 18.9681 34.981 20.6241 34.189 22.0401C33.397 23.4321 32.317 24.5121 30.949 25.2801C29.605 26.0481 28.093 26.4321 26.413 26.4321ZM26.413 23.8401C27.445 23.8401 28.405 23.5881 29.293 23.0841C30.181 22.5801 30.901 21.8241 31.453 20.8161C32.005 19.8081 32.281 18.5601 32.281 17.0721C32.281 15.5841 32.005 14.3361 31.453 13.3281C30.925 12.3201 30.217 11.5641 29.329 11.0601C28.441 10.5561 27.493 10.3041 26.485 10.3041C25.453 10.3041 24.493 10.5561 23.605 11.0601C22.717 11.5641 21.997 12.3201 21.445 13.3281C20.893 14.3361 20.617 15.5841 20.617 17.0721C20.617 18.5601 20.893 19.8081 21.445 20.8161C21.997 21.8241 22.705 22.5801 23.569 23.0841C24.457 23.5881 25.405 23.8401 26.413 23.8401Z" fill="white"/>
<path d="M45.9346 26.0001C44.3026 26.0001 43.0186 25.6041 42.0826 24.8121C41.1466 24.0201 40.6786 22.5921 40.6786 20.5281V10.7001H37.5826V8.14408H40.6786L41.0746 3.86008H43.7026V8.14408H48.9586V10.7001H43.7026V20.5281C43.7026 21.6561 43.9306 22.4241 44.3866 22.8321C44.8426 23.2161 45.6466 23.4081 46.7986 23.4081H48.6706V26.0001H45.9346Z" fill="white"/>
<path d="M60.4443 26.4321C58.7643 26.4321 57.2523 26.0481 55.9083 25.2801C54.5643 24.5121 53.4963 23.4321 52.7043 22.0401C51.9363 20.6241 51.5523 18.9681 51.5523 17.0721C51.5523 15.1761 51.9483 13.5321 52.7403 12.1401C53.5323 10.7241 54.6003 9.63208 55.9443 8.86408C57.3123 8.09608 58.8363 7.71208 60.5163 7.71208C62.1963 7.71208 63.7083 8.09608 65.0523 8.86408C66.3963 9.63208 67.4523 10.7241 68.2203 12.1401C69.0123 13.5321 69.4083 15.1761 69.4083 17.0721C69.4083 18.9681 69.0123 20.6241 68.2203 22.0401C67.4283 23.4321 66.3483 24.5121 64.9803 25.2801C63.6363 26.0481 62.1243 26.4321 60.4443 26.4321ZM60.4443 23.8401C61.4763 23.8401 62.4363 23.5881 63.3243 23.0841C64.2123 22.5801 64.9323 21.8241 65.4843 20.8161C66.0363 19.8081 66.3123 18.5601 66.3123 17.0721C66.3123 15.5841 66.0363 14.3361 65.4843 13.3281C64.9563 12.3201 64.2483 11.5641 63.3603 11.0601C62.4723 10.5561 61.5243 10.3041 60.5163 10.3041C59.4843 10.3041 58.5243 10.5561 57.6363 11.0601C56.7483 11.5641 56.0283 12.3201 55.4763 13.3281C54.9243 14.3361 54.6483 15.5841 54.6483 17.0721C54.6483 18.5601 54.9243 19.8081 55.4763 20.8161C56.0283 21.8241 56.7363 22.5801 57.6003 23.0841C58.4883 23.5881 59.4363 23.8401 60.4443 23.8401Z" fill="white"/>
<path d="M73.613 26.0001V8.14408H76.349L76.529 11.3481C77.105 10.2201 77.933 9.33208 79.013 8.68408C80.093 8.03608 81.317 7.71208 82.685 7.71208C84.797 7.71208 86.477 8.36008 87.725 9.65608C88.997 10.9281 89.633 12.8961 89.633 15.5601V26.0001H86.609V15.8841C86.609 12.1641 85.073 10.3041 82.001 10.3041C80.465 10.3041 79.181 10.8681 78.149 11.9961C77.141 13.1001 76.637 14.6841 76.637 16.7481V26.0001H73.613Z" fill="white"/>
<path d="M94.1785 26.0001V0.800077H104.295C106.911 0.800077 108.903 1.41208 110.271 2.63608C111.663 3.83608 112.359 5.38408 112.359 7.28008C112.359 8.86408 111.927 10.1361 111.063 11.0961C110.223 12.0321 109.191 12.6681 107.967 13.0041C109.407 13.2921 110.595 14.0121 111.531 15.1641C112.467 16.2921 112.935 17.6121 112.935 19.1241C112.935 21.1161 112.215 22.7601 110.775 24.0561C109.335 25.3521 107.295 26.0001 104.655 26.0001H94.1785ZM98.7865 11.3841H103.611C104.907 11.3841 105.903 11.0841 106.599 10.4841C107.295 9.88408 107.643 9.03208 107.643 7.92808C107.643 6.87208 107.295 6.04408 106.599 5.44408C105.927 4.82008 104.907 4.50808 103.539 4.50808H98.7865V11.3841ZM98.7865 22.2561H103.935C105.303 22.2561 106.359 21.9441 107.103 21.3201C107.871 20.6721 108.255 19.7721 108.255 18.6201C108.255 17.4441 107.859 16.5201 107.067 15.8481C106.275 15.1761 105.207 14.8401 103.863 14.8401H98.7865V22.2561Z" fill="white"/>
<path d="M122.937 26.4321C121.401 26.4321 120.141 26.1921 119.157 25.7121C118.173 25.2081 117.441 24.5481 116.961 23.7321C116.481 22.9161 116.241 22.0161 116.241 21.0321C116.241 19.3761 116.889 18.0321 118.185 17.0001C119.481 15.9681 121.425 15.4521 124.017 15.4521H128.553V15.0201C128.553 13.7961 128.205 12.8961 127.509 12.3201C126.813 11.7441 125.949 11.4561 124.917 11.4561C123.981 11.4561 123.165 11.6841 122.469 12.1401C121.773 12.5721 121.341 13.2201 121.173 14.0841H116.673C116.793 12.7881 117.225 11.6601 117.969 10.7001C118.737 9.74008 119.721 9.00808 120.921 8.50408C122.121 7.97608 123.465 7.71208 124.953 7.71208C127.497 7.71208 129.501 8.34808 130.965 9.62008C132.429 10.8921 133.161 12.6921 133.161 15.0201V26.0001H129.237L128.805 23.1201C128.277 24.0801 127.533 24.8721 126.573 25.4961C125.637 26.1201 124.425 26.4321 122.937 26.4321ZM123.981 22.8321C125.301 22.8321 126.321 22.4001 127.041 21.5361C127.785 20.6721 128.253 19.6041 128.445 18.3321H124.521C123.297 18.3321 122.421 18.5601 121.893 19.0161C121.365 19.4481 121.101 19.9881 121.101 20.6361C121.101 21.3321 121.365 21.8721 121.893 22.2561C122.421 22.6401 123.117 22.8321 123.981 22.8321Z" fill="white"/>
<path d="M137.559 26.0001V8.14408H141.627L141.987 11.1681C142.539 10.1121 143.331 9.27208 144.363 8.64808C145.419 8.02408 146.655 7.71208 148.071 7.71208C150.279 7.71208 151.995 8.40808 153.219 9.80008C154.443 11.1921 155.055 13.2321 155.055 15.9201V26.0001H150.447V16.3521C150.447 14.8161 150.135 13.6401 149.511 12.8241C148.887 12.0081 147.915 11.6001 146.595 11.6001C145.299 11.6001 144.231 12.0561 143.391 12.9681C142.575 13.8801 142.167 15.1521 142.167 16.7841V26.0001H137.559Z" fill="white"/>
<path d="M159.461 26.0001V0.0800781H164.069V15.3801L170.405 8.14408H175.877L168.569 16.2801L177.065 26.0001H171.305L164.069 17.0361V26.0001H159.461Z" fill="white"/>
</svg>
