<svg width="248" height="56" viewBox="0 0 248 56" fill="none" xmlns="http://www.w3.org/2000/svg">
<path d="M70.6641 40.0001V14.8001H86.0001V17.2841H73.6881V26.1401H84.1641V28.5881H73.6881V40.0001H70.6641Z" fill="white"/>
<path d="M97.0771 40.4321C95.3971 40.4321 93.8851 40.0481 92.5411 39.2801C91.1971 38.5121 90.1291 37.4321 89.3371 36.0401C88.5691 34.6241 88.1851 32.9681 88.1851 31.0721C88.1851 29.1761 88.5811 27.5321 89.3731 26.1401C90.1651 24.7241 91.2331 23.6321 92.5771 22.8641C93.9451 22.0961 95.4691 21.7121 97.1491 21.7121C98.8291 21.7121 100.341 22.0961 101.685 22.8641C103.029 23.6321 104.085 24.7241 104.853 26.1401C105.645 27.5321 106.041 29.1761 106.041 31.0721C106.041 32.9681 105.645 34.6241 104.853 36.0401C104.061 37.4321 102.981 38.5121 101.613 39.2801C100.269 40.0481 98.7571 40.4321 97.0771 40.4321ZM97.0771 37.8401C98.1091 37.8401 99.0691 37.5881 99.9571 37.0841C100.845 36.5801 101.565 35.8241 102.117 34.8161C102.669 33.8081 102.945 32.5601 102.945 31.0721C102.945 29.5841 102.669 28.3361 102.117 27.3281C101.589 26.3201 100.881 25.5641 99.9931 25.0601C99.1051 24.5561 98.1571 24.3041 97.1491 24.3041C96.1171 24.3041 95.1571 24.5561 94.2691 25.0601C93.3811 25.5641 92.6611 26.3201 92.1091 27.3281C91.5571 28.3361 91.2811 29.5841 91.2811 31.0721C91.2811 32.5601 91.5571 33.8081 92.1091 34.8161C92.6611 35.8241 93.3691 36.5801 94.2331 37.0841C95.1211 37.5881 96.0691 37.8401 97.0771 37.8401Z" fill="white"/>
<path d="M116.599 40.0001C114.967 40.0001 113.683 39.6041 112.747 38.8121C111.811 38.0201 111.343 36.5921 111.343 34.5281V24.7001H108.247V22.1441H111.343L111.739 17.8601H114.367V22.1441H119.623V24.7001H114.367V34.5281C114.367 35.6561 114.595 36.4241 115.051 36.8321C115.507 37.2161 116.311 37.4081 117.463 37.4081H119.335V40.0001H116.599Z" fill="white"/>
<path d="M131.108 40.4321C129.428 40.4321 127.916 40.0481 126.572 39.2801C125.228 38.5121 124.16 37.4321 123.368 36.0401C122.6 34.6241 122.216 32.9681 122.216 31.0721C122.216 29.1761 122.612 27.5321 123.404 26.1401C124.196 24.7241 125.264 23.6321 126.608 22.8641C127.976 22.0961 129.5 21.7121 131.18 21.7121C132.86 21.7121 134.372 22.0961 135.716 22.8641C137.06 23.6321 138.116 24.7241 138.884 26.1401C139.676 27.5321 140.072 29.1761 140.072 31.0721C140.072 32.9681 139.676 34.6241 138.884 36.0401C138.092 37.4321 137.012 38.5121 135.644 39.2801C134.3 40.0481 132.788 40.4321 131.108 40.4321ZM131.108 37.8401C132.14 37.8401 133.1 37.5881 133.988 37.0841C134.876 36.5801 135.596 35.8241 136.148 34.8161C136.7 33.8081 136.976 32.5601 136.976 31.0721C136.976 29.5841 136.7 28.3361 136.148 27.3281C135.62 26.3201 134.912 25.5641 134.024 25.0601C133.136 24.5561 132.188 24.3041 131.18 24.3041C130.148 24.3041 129.188 24.5561 128.3 25.0601C127.412 25.5641 126.692 26.3201 126.14 27.3281C125.588 28.3361 125.312 29.5841 125.312 31.0721C125.312 32.5601 125.588 33.8081 126.14 34.8161C126.692 35.8241 127.4 36.5801 128.264 37.0841C129.152 37.5881 130.1 37.8401 131.108 37.8401Z" fill="white"/>
<path d="M144.277 40.0001V22.1441H147.013L147.193 25.3481C147.769 24.2201 148.597 23.3321 149.677 22.6841C150.757 22.0361 151.981 21.7121 153.349 21.7121C155.461 21.7121 157.141 22.3601 158.389 23.6561C159.661 24.9281 160.297 26.8961 160.297 29.5601V40.0001H157.273V29.8841C157.273 26.1641 155.737 24.3041 152.665 24.3041C151.129 24.3041 149.845 24.8681 148.813 25.9961C147.805 27.1001 147.301 28.6841 147.301 30.7481V40.0001H144.277Z" fill="white"/>
<path d="M164.843 40.0001V14.8001H174.959C177.575 14.8001 179.567 15.4121 180.935 16.6361C182.327 17.8361 183.023 19.3841 183.023 21.2801C183.023 22.8641 182.591 24.1361 181.727 25.0961C180.887 26.0321 179.855 26.6681 178.631 27.0041C180.071 27.2921 181.259 28.0121 182.195 29.1641C183.131 30.2921 183.599 31.6121 183.599 33.1241C183.599 35.1161 182.879 36.7601 181.439 38.0561C179.999 39.3521 177.959 40.0001 175.319 40.0001H164.843ZM169.451 25.3841H174.275C175.571 25.3841 176.567 25.0841 177.263 24.4841C177.959 23.8841 178.307 23.0321 178.307 21.9281C178.307 20.8721 177.959 20.0441 177.263 19.4441C176.591 18.8201 175.571 18.5081 174.203 18.5081H169.451V25.3841ZM169.451 36.2561H174.599C175.967 36.2561 177.023 35.9441 177.767 35.3201C178.535 34.6721 178.919 33.7721 178.919 32.6201C178.919 31.4441 178.523 30.5201 177.731 29.8481C176.939 29.1761 175.871 28.8401 174.527 28.8401H169.451V36.2561Z" fill="white"/>
<path d="M193.602 40.4321C192.066 40.4321 190.806 40.1921 189.822 39.7121C188.838 39.2081 188.106 38.5481 187.626 37.7321C187.146 36.9161 186.906 36.0161 186.906 35.0321C186.906 33.3761 187.554 32.0321 188.85 31.0001C190.146 29.9681 192.09 29.4521 194.682 29.4521H199.218V29.0201C199.218 27.7961 198.87 26.8961 198.174 26.3201C197.478 25.7441 196.614 25.4561 195.582 25.4561C194.646 25.4561 193.83 25.6841 193.134 26.1401C192.438 26.5721 192.006 27.2201 191.838 28.0841H187.338C187.458 26.7881 187.89 25.6601 188.634 24.7001C189.402 23.7401 190.386 23.0081 191.586 22.5041C192.786 21.9761 194.13 21.7121 195.618 21.7121C198.162 21.7121 200.166 22.3481 201.63 23.6201C203.094 24.8921 203.826 26.6921 203.826 29.0201V40.0001H199.902L199.47 37.1201C198.942 38.0801 198.198 38.8721 197.238 39.4961C196.302 40.1201 195.09 40.4321 193.602 40.4321ZM194.646 36.8321C195.966 36.8321 196.986 36.4001 197.706 35.5361C198.45 34.6721 198.918 33.6041 199.11 32.3321H195.186C193.962 32.3321 193.086 32.5601 192.558 33.0161C192.03 33.4481 191.766 33.9881 191.766 34.6361C191.766 35.3321 192.03 35.8721 192.558 36.2561C193.086 36.6401 193.782 36.8321 194.646 36.8321Z" fill="white"/>
<path d="M208.223 40.0001V22.1441H212.291L212.651 25.1681C213.203 24.1121 213.995 23.2721 215.027 22.6481C216.083 22.0241 217.319 21.7121 218.735 21.7121C220.943 21.7121 222.659 22.4081 223.883 23.8001C225.107 25.1921 225.719 27.2321 225.719 29.9201V40.0001H221.111V30.3521C221.111 28.8161 220.799 27.6401 220.175 26.8241C219.551 26.0081 218.579 25.6001 217.259 25.6001C215.963 25.6001 214.895 26.0561 214.055 26.9681C213.239 27.8801 212.831 29.1521 212.831 30.7841V40.0001H208.223Z" fill="white"/>
<path d="M230.125 40.0001V14.0801H234.733V29.3801L241.069 22.1441H246.541L239.233 30.2801L247.729 40.0001H241.969L234.733 31.0361V40.0001H230.125Z" fill="white"/>
<rect width="56" height="56" rx="8" fill="url(#paint0_linear)"/>
<path fill-rule="evenodd" clip-rule="evenodd" d="M15.832 36.399L18.7506 39.2007L27.5013 30.8005L36.2493 39.2007L39.168 36.399L30.4173 27.9987L27.5013 25.1995L24.5827 27.9987L15.832 36.399Z" fill="url(#paint1_linear)"/>
<path fill-rule="evenodd" clip-rule="evenodd" d="M10 30.8005L12.916 33.5998L27.5013 19.601L42.084 33.5998L45 30.8005L30.4173 16.7993L27.5013 14L24.5827 16.7993L10 30.8005Z" fill="url(#paint2_linear)"/>
<path fill-rule="evenodd" clip-rule="evenodd" d="M27.5014 36.3989L33.3334 41.9999H21.6667L27.5014 36.3989Z" fill="url(#paint3_linear)"/>
<defs>
<linearGradient id="paint0_linear" x1="28" y1="0" x2="28" y2="56" gradientUnits="userSpaceOnUse">
<stop stop-color="#343437"/>
<stop offset="0.0520833" stop-color="#464649"/>
<stop offset="1" stop-color="#141416"/>
</linearGradient>
<linearGradient id="paint1_linear" x1="27.5" y1="25.1995" x2="27.5" y2="39.2007" gradientUnits="userSpaceOnUse">
<stop stop-color="#DEA30A"/>
<stop offset="1" stop-color="#FFD770"/>
</linearGradient>
<linearGradient id="paint2_linear" x1="27.5" y1="14" x2="27.5" y2="33.5998" gradientUnits="userSpaceOnUse">
<stop stop-color="#DEA30A"/>
<stop offset="1" stop-color="#FFD770"/>
</linearGradient>
<linearGradient id="paint3_linear" x1="27.5001" y1="36.3989" x2="27.5001" y2="41.9999" gradientUnits="userSpaceOnUse">
<stop stop-color="#DEA30A"/>
<stop offset="1" stop-color="#FFD770"/>
</linearGradient>
</defs>
</svg>
